<?xml version="1.0" standalone="no"?>
<!DOCTYPE svg PUBLIC "-//W3C//DTD SVG 1.1//EN" "http://www.w3.org/Graphics/SVG/1.1/DTD/svg11.dtd" >
<!--
2013-9-30: Created.
-->
<svg>
<metadata>
Created by iconfont
</metadata>
<defs>

<font id="iconfont" horiz-adv-x="1024" >
  <font-face
    font-family="iconfont"
    font-weight="500"
    font-stretch="normal"
    units-per-em="1024"
    ascent="896"
    descent="-128"
  />
    <missing-glyph />
    
    <glyph glyph-name="x" unicode="x" horiz-adv-x="1001"
d="M281 543q-27 -1 -53 -1h-83q-18 0 -36.5 -6t-32.5 -18.5t-23 -32t-9 -45.5v-76h912v41q0 16 -0.5 30t-0.5 18q0 13 -5 29t-17 29.5t-31.5 22.5t-49.5 9h-133v-97h-438v97zM955 310v-52q0 -23 0.5 -52t0.5 -58t-10.5 -47.5t-26 -30t-33 -16t-31.5 -4.5q-14 -1 -29.5 -0.5
t-29.5 0.5h-32l-45 128h-439l-44 -128h-29h-34q-20 0 -45 1q-25 0 -41 9.5t-25.5 23t-13.5 29.5t-4 30v167h911zM163 247q-12 0 -21 -8.5t-9 -21.5t9 -21.5t21 -8.5q13 0 22 8.5t9 21.5t-9 21.5t-22 8.5zM316 123q-8 -26 -14 -48q-5 -19 -10.5 -37t-7.5 -25t-3 -15t1 -14.5
t9.5 -10.5t21.5 -4h37h67h81h80h64h36q23 0 34 12t2 38q-5 13 -9.5 30.5t-9.5 34.5q-5 19 -11 39h-368zM336 498v228q0 11 2.5 23t10 21.5t20.5 15.5t34 6h188q31 0 51.5 -14.5t20.5 -52.5v-227h-327z" />
    

    
    <glyph glyph-name="caidan" unicode="&#13369;" d="M0 800h1000v-1000H0V800L0 800zM777.9975 577.9975H222.0025c-15.3375 0-28.335-5.4975-39.005-16.4988-10.6638-11.0013-15.995-24.165-15.995-39.4963 0-15.3375 5.3313-28.335 15.995-39.005 10.67-10.6638 23.6675-15.995 39.005-15.995h555.995c15.3375 0 28.335 5.3313 39.0037 15.995 10.6638 10.67 15.9963 23.6675 15.9963 39.005 0 15.3313-5.3325 28.495-15.9963 39.4963C806.3325 572.5 793.335 577.9975 777.9975 577.9975L777.9975 577.9975zM777.9975 356.0012H222.0025c-15.3375 0-28.335-5.5037-39.005-16.4988-10.6638-11.0013-15.995-24.17-15.995-39.5025 0-15.3325 5.3313-28.5013 15.995-39.5025 10.67-10.995 23.6675-16.4988 39.005-16.4988h555.995c15.3375 0 28.335 5.5037 39.0037 16.4988 10.6638 11.0013 15.9963 24.17 15.9963 39.5025 0 15.3325-5.3325 28.5013-15.9963 39.5025C806.3325 350.4975 793.335 356.0012 777.9975 356.0012L777.9975 356.0012zM777.9975 132.9975H222.0025c-15.3375 0-28.335-5.3325-39.005-15.995-10.6638-10.67-15.995-23.6688-15.995-39.005 0-15.3325 5.3313-28.495 15.995-39.4975 10.67-11.0013 23.6675-16.4975 39.005-16.4975h555.995c15.3375 0 28.335 5.4963 39.0037 16.4975 10.6638 11.0025 15.9963 24.165 15.9963 39.4975 0 15.3375-5.3325 28.335-15.9963 39.005C806.3325 127.6662 793.335 132.9975 777.9975 132.9975L777.9975 132.9975zM777.9975 132.9975"  horiz-adv-x="1000" />

    
    <glyph glyph-name="jiahao" unicode="&#13412;" d="M745.9988 336.3084H535.1451125632972V547.1544292969367c0 11.0385-8.9493 19.9864-19.9873 19.9864-11.04 0-19.9873-8.9479-19.9873-19.9864v-210.846046380554H284.31489141416915c-11.039 0-19.9873-8.9479-19.9873-19.9864s8.9483-19.9864 19.9873-19.9864h210.85468556529491v-210.8450470580946c0-11.0395 8.9483-19.9864 19.9873-19.9864 11.038 0 19.9873 8.9469 19.9873 19.9864V296.3354845414809h210.8536862018894c11.038 0 19.9873 8.9479 19.9873 19.9864S757.0368 336.3084 745.9988 336.3084z"  horiz-adv-x="1000" />

    
    <glyph glyph-name="you" unicode="&#58904;" d="M380.7109-68.0553l358.5516 358.5679L380.287 649.5014h-94.491648l-0.4055-0.4096 358.5587-358.5782L285.4011-68.0553H380.710912z"  horiz-adv-x="1024" />

    
    <glyph glyph-name="yiwen" unicode="&#58880;" d="M490.892047 769.317271C219.779012 769.317271 0 549.535247 0 278.422212S219.779012-212.474353 490.892047-212.474353s490.893553 219.782024 490.893553 490.895059S762.008094 769.317271 490.892047 769.317271zM538.530635-4.843294c0-13.554447-10.986918-24.545882-24.545882-24.545882l-73.633129 0c-13.554447 0-24.542871 10.991435-24.542871 24.545882l0 73.633129c0 13.560471 10.989929 24.548894 24.542871 24.548894l73.633129 0c13.558965 0 24.545882-10.988424 24.545882-24.548894L538.530635-4.843294zM660.199906 333.013459c-9.865035-14.067953-32.259012-31.990965-60.292518-53.845835l-31.069365-21.439247c-15.088941-11.703718-28.470212-25.330447-33.420047-40.932894-1.691106-5.314259-2.959059-14.049882-3.811388-23.484235-0.429176-4.748047-4.680282-14.435388-14.605553-14.435388-24.323012 0-70.6816 0-79.905129 0-12.988235 0-15.307294 10.173741-15.090447 15.149176 1.439624 32.6144 4.424282 61.571012 17.7152 77.1584 26.902588 31.542212 88.119718 70.808094 88.119718 70.808094 9.319906 7.033976 16.864376 14.677835 22.568659 23.009882 10.375529 14.304376 18.983153 30.013741 18.983153 47.185318 0 19.734588-5.772047 37.725365-17.349271 54.008471-11.536565 16.219859-32.673129 24.3456-63.298259 24.3456-30.146259 0-51.517741-10.006588-64.115953-30.010729-9.304847-14.778729-15.165741-28.367812-17.591718-43.154071-0.861365-5.232941-4.219482-16.254494-15.403671-16.254494-23.633318 0-67.204518 0-77.929412 0-16.596329 0-20.248094 10.753506-19.769224 15.935247 6.008471 65.329694 31.537694 109.964047 76.678024 138.625506 30.692894 19.733082 68.4544 29.635765 113.248376 29.635765 58.858918 0 107.718776-14.031812 146.672941-42.131576 38.884894-28.063624 58.381553-69.647059 58.381553-124.784941C688.914071 384.6336 677.065788 356.158871 660.199906 333.013459z"  horiz-adv-x="1024" />

    
    <glyph glyph-name="exit" unicode="&#58924;" d="M1024 288l-256 256v-192h-416c-17.672 0-32-14.328-32-32v-64c0-17.672 14.328-32 32-32h416v-192l256 256zM609 32h-64c-17.672 0-32-14.328-32-32v-97h-384v768h384v-96c0-17.672 14.328-32 32-32h64c17.672 0 32 14.328 32 32v192c0 17.672-14.328 32-32 32h-578c-16.568 0-30-13.432-30-30v-964c0-16.568 13.432-30 30-30h516c2.618 0 5.144 0.37 7.564 1h54.436c17.672 0 32 14.328 32 32v192c0 17.672-14.328 32-32 32z"  horiz-adv-x="1024" />

    
    <glyph glyph-name="email" unicode="&#59151;" d="M42.667 586.667v-597.333h938.667l-0 597.333h-938.667zM329.045 298.795l-243.712-243.712v487.381l243.712-243.669zM359.211 268.587l151.765-151.723 154.539 154.539 239.445-239.403h-782.336l236.587 236.587zM510.976 177.152l-366.848 366.848h733.611l-366.763-366.848zM938.667 58.667l-242.901 242.944 242.304 242.389h0.597v-485.333z"  horiz-adv-x="1024" />

    
    <glyph glyph-name="QQ" unicode="&#58887;" d="M971.464704 143.341312 968.998912 160.979712 965.843968 178.185984 963.337216 187.0272 960.917504 196.430592 957.71648 205.401856 954.430464 215.387904 950.668288 224.791296 946.562048 234.454784 939.254784 250.234624 932.769792 264.1344 926.285824 276.562688 920.62208 288.151296 914.138112 298.698496 909.382656 308.383488 899.309568 322.84544 886.64064 342.105856 883.70176 346.861312 882.707456 348.892928 882.707456 350.49344 884.825088 356.999936 887.763968 362.792704 890.314752 374.227712 891.742208 380.130048 891.742208 386.22592 892.478464 391.132928 892.478464 396.06144 891.742208 401.72416 890.92096 406.350592 889.061376 415.73248 886.64064 424.854272 884.435968 433.220352 880.97792 441.348864 877.08672 448.135936 874.015744 454.512384 870.601728 460.586752 865.240064 469.536512 863.25248 472.71296 862.646272 475.479808 860.182528 492.838656 858.58304 504.274688 856.767488 518.432512 853.957632 533.06752 849.547264 549.841664 847.040512 559.245056 845.049856 567.200512 842.284032 576.452352 839.171072 586.287872 836.058112 595.409664 832.079872 605.22368 823.953408 624.182016 819.15392 633.15328 813.359104 643.442432 807.913472 652.26112 802.465792 662.248192 794.769408 671.501056 788.286464 680.47232 780.374016 689.72416 772.332544 698.11072 764.203008 706.216704 754.562048 714.626816 749.504512 717.651712 744.706048 721.846016 734.329856 729.216768 722.312192 737.193728 710.032384 744.413952 697.365504 750.920448 683.531264 756.864768 670.560256 762.507008 657.027072 767.43552 642.24256 771.478272 628.7104 775.087872 614.31296 778.24384 600.694784 781.572864 585.996288 783.172352 571.597824 784.923392 557.246464 786.80448 542.416896 786.80448 528.106496 786.80448 514.271232 786.80448 499.70176 785.960704 486.040576 784.059136 472.421376 782.178048 458.587136 779.864832 444.88192 777.249536 431.911936 774.072064 418.941952 769.878784 406.880256 765.68448 394.81856 761.642752 382.712832 755.698432 371.299328 750.920448 361.182208 745.126656 350.63296 738.62016 340.90496 731.832064 331.308032 724.180736 323.396608 717.069056 310.9888 705.373952 300.698624 694.50112 290.8416 683.951872 281.8048 673.229568 273.332224 662.248192 265.895936 651.548416 258.676736 640.84864 255.304704 636.070656 252.191744 630.277888 245.446656 620.139264 240.086016 610.022144 235.33056 600.469248 231.179264 590.351104 227.115008 581.100288 223.742976 572.4096 220.63104 563.158784 217.474048 554.619648 213.279744 539.141888 210.210816 524.246784 208.525312 511.796992 206.795776 501.074688 206.795776 492.838656 206.795776 486.181632 206.795776 480.258816 203.855872 477.058816 201.17504 472.71296 199.057408 468.822784 197.240832 464.629504 194.950144 455.506688 192.442368 447.119104 191.62112 439.618304 191.058944 434.106112 191.058944 428.183296 185.265152 419.774208 181.157888 411.386624 178.045952 403.302144 175.75424 396.06144 173.98272 389.121792 172.296192 382.594816 172.296192 377.124608 172.296192 371.028736 172.296192 365.9712 173.290496 361.928448 174.716928 354.535168 176.489472 348.892928 173.290496 346.429184 164.210688 339.641088 152.236032 328.660736 144.88576 322.153216 137.709568 315.776768 132.781056 310.696704 128.7168 306.221824 119.983104 296.819456 111.68256 287.416064 105.197568 279.309056 97.415168 267.592448 89.979904 257.045248 82.629632 245.306112 76.447744 234.454784 71.303168 222.910208 65.855488 212.189952 61.877248 201.63968 57.683968 190.637824 54.571008 179.938048 51.501056 168.935168 48.77824 159.380224 47.263744 149.111552 45.57824 139.578112 44.150784 130.304768 43.287552 112.233216 43.287552 95.459072 43.287552 87.936768 44.150784 80.543488 46.44352 67.9616 47.263744 62.427904 48.77824 56.809216 50.6368 51.489536 52.366336 47.730432 55.133184 40.76928 57.25184 39.341824 58.548224 36.402944 60.191744 35.711744 61.186048 35.711744 61.877248 35.711744 69.097472 36.402944 76.447744 38.303488 82.629632 40.76928 89.114624 44.96256 95.03744 48.85376 100.39808 53.955328 106.191872 59.27296 111.077376 64.764672 115.745792 70.989568 119.983104 76.611328 123.961344 81.277696 126.425088 86.63936 131.267584 95.459072 132.781056 99.069696 133.645312 101.230336 134.076416 103.695104 135.201792 105.72672 136.066048 106.158848 137.709568 107.025152 138.74688 107.025152 139.179008 106.158848 140.000256 106.158848 140.822528 105.72672 143.545344 93.729536 146.485248 84.044544 150.419456 73.88544 154.396672 64.764672 157.72672 55.68384 162.871296 47.730432 166.631424 39.341824 170.86976 31.647488 175.75424 24.990464 179.472384 18.590464 189.329408 6.745856 197.933056-3.804416 206.2336-12.018944 214.40512-19.412224 221.495296-25.204992 232.044544-34.58688 236.281856-36.661504 237.707264-38.650112 237.707264-39.644416 236.713984-40.552704 236.281856-40.552704 234.1632-41.244928 226.250752-41.850112 218.901504-42.844416 212.718592-43.709696 206.2336-45.135104 200.569856-46.907648 194.950144-48.637184 190.021632-51.275008 186.131456-53.696768 181.157888-55.296256 178.045952-57.890048 174.716928-59.921664 171.127808-62.816512 166.631424-68.438272 164.94592-71.076096 162.871296-73.366784 160.017408-79.290624 158.461952-84.22016 156.601344-89.146624 156.212224-93.470976 156.212224-99.133696 156.212224-101.598464 155.390976-105.618688 155.390976-109.726976 154.396672-113.7472 154.396672-117.33632 155.390976-121.269504 156.212224-124.77056 158.461952-131.516672 160.017408-134.715648 162.006016-137.9136 164.210688-141.069568 166.631424-143.838464 169.875456-146.993408 172.296192-149.5872 179.472384-154.948864 186.692608-159.444224 194.950144-163.50848 203.855872-167.139584 213.279744-171.02976 223.742976-173.452544 234.1632-176.9536 245.446656-179.289344 256.688128-180.974848 268.273664-182.748416 280.249344-184.477952 303.855616-186.940672 328.195072-187.3728 350.63296-187.3728 361.182208-187.3728 371.299328-187.3728 381.847552-186.940672 390.884352-185.905408 399.617024-185.213184 407.788544-184.477952 420.931584-181.883136 430.398464-179.289344 439.392256-176.9536 455.993344-169.994496 463.516672-167.139584 470.69184-163.50848 482.53952-156.85248 493.216768-151.489792 501.129216-146.43328 506.921984-141.069568 515.95776-142.063872 522.96192-142.843136 536.79616-143.838464 543.281152-143.838464 548.770816-143.838464 552.96512-144.70272 557.246464-146.43328 564.033536-148.893952 571.597824-151.489792 585.996288-155.986176 600.694784-161.345792 615.005184-165.496064 629.445632-168.438016 644.187136-172.155136 659.448832-174.359808 673.931264-175.959296 688.458752-177.990912 702.03392-179.289344 716.560384-180.108544 730.481664-180.108544 744.013824-180.108544 756.854784-180.108544 769.823744-178.554112 782.534656-177.990912 794.769408-175.959296 806.052864-173.452544 817.337344-171.02976 828.147712-168.438016 832.641024-167.139584 837.6576-165.496064 847.040512-161.778944 855.384064-157.887744 863.25248-153.823488 870.601728-149.5872 877.08672-144.70272 879.637504-142.063872 882.707456-138.4768 886.64064-133.677312 890.92096-127.754496 892.478464-124.77056 893.169664-122.264832 894.984192-119.064832 895.676416-115.60576 895.676416-112.275712 896.54272-108.947712 895.676416-104.063232 894.984192-99.868928 893.169664-94.940416 891.742208-90.87616 889.061376-85.946624 885.820416-81.452288 882.707456-77.561088 878.513152-74.275072 869.866496-66.751744 860.182528-59.488512 850.41152-53.696768 840.121344-47.772928 816.603136-36.186368 810.9824-32.727296 809.426944-31.127808 808.430592-30.090496 819.759104-18.675968 824.644608-13.056256 828.70784-7.867648 836.619264 3.588864 844.09856 15.305472 850.41152 25.724672 856.377344 35.711744 864.375808 55.68384 870.601728 72.285952 874.707968 84.044544 877.08672 87.936768 878.513152 91.092736 880.97792 92.995328 882.015232 92.995328 882.707456 92.561152 888.759296 80.543488 894.163968 68.957952 897.968128 62.427904 901.901312 56.809216 905.793536 49.892096 910.808064 43.058944 915.001344 38.303488 917.552128 35.711744 920.059904 33.374976 922.351616 31.647488 924.557312 30.046976 929.398784 27.582208 931.90656 26.717952 933.593088 26.717952 935.839744 26.717952 938.391552 27.582208 941.548544 29.18272 945.050624 30.783232 947.945472 33.374976 950.668288 36.402944 953.73824 40.164096 956.158976 43.058944 958.88384 47.730432 960.917504 51.489536 963.337216 56.809216 964.6336 61.304576 968.136704 72.285952 970.426368 84.434688 972.068864 97.902336 973.193216 105.72672 973.193216 112.233216 973.193216 119.194368 973.193216 127.712Z"  horiz-adv-x="1024" />

    
    <glyph glyph-name="xiazai" unicode="&#58897;" d="M123.713536 491.387648 382.262272 491.387648 382.262272 747.463424 575.788032 747.463424l0-256.074752L830.180352 491.388672 476.946432 110.479104 123.713536 491.387648zM829.90592 108.224256l0-62.464L124.913664 45.760256l0 62.464L58.868736 108.224256l0-190.454784 66.044928 0 704.992256 0 61.436928 0L891.342848 108.224256 829.90592 108.224256z"  horiz-adv-x="1024" />

    
    <glyph glyph-name="icon" unicode="&#58937;" d="M509.786112-142.360832c-247.8336 0-448.744448 200.977408-448.744448 448.760832 0 247.8336 200.910848 448.744448 448.744448 448.744448 247.870464 0 448.746496-200.910848 448.746496-448.744448C958.532608 58.615552 757.656576-142.360832 509.786112-142.360832L509.786112-142.360832zM715.584512 437.261056c8.394752 8.443904 8.394752 22.11328 0 30.507008l-45.809664 45.879296c-8.46336 8.393728-22.114304 8.393728-30.575616 0L509.348864 383.796992 379.599872 513.64736c-8.495104 8.393728-22.147072 8.393728-30.608384 0l-45.77792-45.879296c-8.42752-8.393728-8.42752-22.063104 0-30.507008l129.816576-129.833984L303.213568 177.627904c-8.42752-8.426496-8.42752-22.11328 0-30.574592l45.77792-45.77792c8.460288-8.477696 22.11328-8.477696 30.608384 0L509.348864 231.091968l129.850368-129.816576c8.462336-8.477696 22.11328-8.477696 30.575616 0l45.809664 45.77792c8.394752 8.462336 8.394752 22.148096 0 30.574592L585.735168 307.428096 715.584512 437.261056 715.584512 437.261056z"  horiz-adv-x="1024" />

    
    <glyph glyph-name="tubiao15" unicode="&#59119;" d="M913.6 377.312l-324.48 0L589.12 701.664c0 42.688-34.496 46.4-77.248 46.4-42.56 0-77.184-3.584-77.184-46.4l0-324.352L110.336 377.312C67.584 377.312 64 342.688 64 300.064c0-42.624 3.584-77.312 46.336-77.312l324.352 0 0-324.352c0-42.688 34.624-46.464 77.184-46.464 42.752 0 77.248 3.776 77.248 46.464L589.12 222.752l324.48 0C956.288 222.752 960 257.44 960 300.064 960 342.688 956.288 377.312 913.6 377.312z"  horiz-adv-x="1024" />

    
    <glyph glyph-name="shanchu" unicode="&#58908;" d="M386.990351 59.354198 386.990351 452.041812c0 9.866718-8.003606 17.84953-17.851285 17.84953-9.849726 0-17.850261-7.982812-17.850261-17.84953l0-392.687614c0-9.850345 8.000536-17.851577 17.850261-17.851577C378.986745 41.502621 386.990351 49.503852 386.990351 59.354198zM529.793466 59.354198 529.793466 452.041812c0 9.866718-8.003606 17.84953-17.853331 17.84953-9.846656 0-17.848215-7.982812-17.848215-17.84953l0-392.687614c0-9.850345 8.001559-17.851577 17.848215-17.851577C521.788837 41.502621 529.793466 49.503852 529.793466 59.354198zM815.393554 487.740872c-9.845632 0-17.846168-7.983835-17.846168-17.84953l0-481.935264c0-19.697621-15.987768-35.700083-35.702569-35.700083L262.038521-47.744006c-19.715825 0-35.700523 16.002462-35.700523 35.700083L226.337999 469.890318c0 9.866718-8.001559 17.84953-17.850261 17.84953-8.3014 0-15.271424-5.681396-17.26286-13.373589-0.194436 0.107447-0.396036 0.204661-0.588425 0.316202l0-486.72843c0-39.429011 31.953022-71.39812 71.401046-71.39812l499.806295 0c39.430627 0 71.401046 31.969109 71.401046 71.39812L833.244839 469.890318C833.245862 479.757037 825.244303 487.740872 815.393554 487.740872zM869.04872 612.687582 663.473431 612.687582l-65.856545 65.853847c-3.810948 3.811816-8.844798 5.641487-13.840783 5.52176-0.146339 0.00307-0.287561 0.021489-0.4339 0.021489L440.541135 684.084679c-0.128942 0-0.254814-0.016373-0.382732-0.019443-4.979612 0.105401-9.991971-1.726318-13.789616-5.523807l-65.856545-65.853847L154.93593 612.687582c-9.848702 0-17.849238-7.984858-17.849238-17.850553 0-9.849322 8.000536-17.850553 17.849238-17.850553l214.203137 0c0.225137 0 0.444133 0.025583 0.667223 0.033769 5.0799-0.190335 10.221201 1.633197 14.097644 5.508457l65.856545 65.85487 124.462669 0 65.856545-65.85487c3.875419-3.876284 9.017744-5.698792 14.09662-5.508457 0.224113-0.008186 0.44311-0.033769 0.667223-0.033769l214.202113 0c9.848702 0 17.849238 8.001231 17.849238 17.850553C886.898981 604.702724 878.897422 612.687582 869.04872 612.687582zM672.592487 59.354198 672.592487 452.041812c0 9.866718-7.998489 17.84953-17.848215 17.84953s-17.851285-7.982812-17.851285-17.84953l0-392.687614c0-9.850345 8.001559-17.851577 17.851285-17.851577S672.592487 49.503852 672.592487 59.354198z"  horiz-adv-x="1024" />

    
    <glyph glyph-name="tuichu" unicode="&#58900;" d="M203.369973 356.033042l667.629248 0-148.386502-148.931984c-11.060347-11.086499-11.060347-29.096688 0-40.184211 11.031693-11.087523 28.959729-11.087523 40.019052 0l195.30292 196.011232c5.902672 5.930059 8.411922 13.762445 8.026119 21.511943 0.385802 7.750521-2.123447 15.610536-8.026119 21.511943L762.631772 601.96422c-11.060347 11.086499-28.987359 11.086499-40.019052 0-11.060347-11.086499-11.060347-29.096688 0-40.184211l148.386502-148.931984L203.369973 412.848025c-15.638806 0-28.298646-12.71458-28.298646-28.408003S187.731167 356.033042 203.369973 356.033042zM796.419657 694.660412c0 31.193443-25.292049 56.484456-56.48677 56.484456L175.071328 751.144868c-31.193698 0-56.485747-25.291013-56.485747-56.484456l0-621.321848c0-31.19242 25.292049-56.483432 56.485747-56.483432l564.861559 0c31.194721 0 56.48677 25.291013 56.48677 56.483432L796.419657 186.306452l56.485747 0 0-112.967888c0-62.385862-50.584098-112.967888-112.97354-112.967888L175.071328-39.629323c-62.388419 0-112.972517 50.582025-112.972517 112.967888L62.098811 694.660412c0 62.385862 50.584098 112.967888 112.972517 112.967888l564.861559 0c62.389442 0 112.97354-50.582025 112.97354-112.967888l0-112.967888-56.485747 0L796.42068 694.660412z"  horiz-adv-x="1024" />

    
    <glyph glyph-name="jinggao" unicode="&#58915;" d="M951.07921-3.706023 557.94019 623.685054c-9.751494 15.609513-27.770626 25.317619-46.922605 25.317619-19.200077 0-37.172135-9.708106-46.967633-25.317619L70.895582-3.706023c-10.410531-16.618493-10.259075-37.169551 0.389896-53.613058 10.015518-15.47853 27.421664-24.706705 46.553176-24.706705l786.31795 0c19.157096 0 36.561195 9.228175 46.532709 24.706705C961.357728-40.874551 961.488717-20.324516 951.07921-3.706023L951.07921-3.706023zM561.217977 18.02593c0-5.77554-1.790861-11.501962-5.293785-15.872502-3.540788-4.375657-8.174513-6.561439-12.765257-6.561439l-62.625898 0c-4.634748 0-9.26745 2.184759-12.765257 6.561439-3.541811 4.370541-5.293785 10.102079-5.293785 15.872502l0 37.383422c0 5.731538 1.751974 11.501962 5.293785 15.872502 3.497807 4.375657 8.130509 6.561439 12.765257 6.561439l62.625898 0c4.590744 0 9.224469-2.185782 12.765257-6.561439 3.502924-4.370541 5.293785-10.146081 5.293785-15.872502L561.217977 18.02593 561.217977 18.02593zM555.881212 140.681458c-3.541811-2.930749-8.175536-4.414543-12.809261-4.370541l-62.230885 0.258896c-4.590744 0-9.186605 1.488911-12.684413 4.375657-3.497807 2.926656-5.248758 6.732331-5.292762 10.580986l-0.390919 105.60213L462.472971 422.982986c0 3.804652 1.746857 7.653307 5.249781 10.584056 3.541811 2.926656 8.174513 4.414543 12.765257 4.414543l62.53789 0c4.634748 0 9.268473-1.486864 12.766281-4.414543 3.546928-2.930749 5.292762-6.779404 5.292762-10.584056l0-164.630525 0.089031-107.003036C561.217977 147.456768 559.427116 143.608114 555.881212 140.681458L555.881212 140.681458zM555.881212 140.681458"  horiz-adv-x="1024" />

    
    <glyph glyph-name="xiangzuo" unicode="&#58958;" d="M668.149109-78.436028c-7.820426 0.005117-15.589685 3.326768-21.022641 9.774621L341.342885 294.355443c-8.586914 10.194176-8.612498 25.083282-0.063448 35.31225L633.575293 679.195322c9.733064 11.640108 27.053231 13.180184 38.687676 3.452635 11.637515-9.733689 13.184817-27.051099 3.451753-38.685068L398.20727 312.114922l290.933779-345.390401c9.768881-11.597129 8.287073-28.92682-3.310531-38.695301C680.675913-76.314715 674.394603-78.436028 668.149109-78.436028L668.149109-78.436028zM668.149109-78.436028"  horiz-adv-x="1024" />

    
    <glyph glyph-name="search" unicode="&#58994;" d="M950.149059-96.196531 679.876679 175.727649c50.381475 60.327994 80.71249 137.979538 80.71249 222.724641 0 192.031595-155.671717 347.704097-347.719367 347.704097-192.032299 0-347.704017-155.671479-347.704017-347.704097 0-192.032618 155.67274-347.704097 347.704017-347.704097 87.264988 0 167.015531 32.148188 228.067457 85.23936l269.864065-271.526113c10.863864-10.865465 28.481825-10.865465 39.347735 0C961.001666-124.672072 961.001666-107.063019 950.149059-96.196531zM412.869802 105.92077c-161.553922 0-292.531226 130.970914-292.531226 292.532543 0 161.559583 130.977303 292.533566 292.531226 292.533566 161.579506 0 292.559879-130.97296 292.559879-292.533566C705.428658 236.891683 574.448284 105.92077 412.869802 105.92077z"  horiz-adv-x="1024" />

    
    <glyph glyph-name="shanchu1" unicode="&#58986;" d="M693.529166 580.250822c33.938317-4.776793 69.254061 1.37123 96.966328-3.343141 44.878932-7.634888 67.626938-45.798069 62.696446-101.978603-18.112239 0-36.22243 0-54.337739 0-1.530929-99.660814-0.833005-198.421118-0.833005-298.413484 0-50.469462 4.202891-103.547331-0.835052-148.787698-4.766756-42.771129-36.096558-68.819388-74.398432-75.231425-37.767686-6.321986-87.886161-1.672082-129.56713-1.672082-87.402117 0-175.966757-1.692548-261.644532 0-41.724973 0.825808-72.465328 14.06739-91.115847 39.288818-18.652566 25.219381-16.718438 63.384609-16.718438 108.663862 0 126.147048 0 251.233951 0 376.152009-17.277186 0-34.55335 0-51.828489 0-8.416015 51.690266 13.962562 88.836281 51.828489 101.142561 27.834046 9.048073 64.941672 1.739621 104.488961 4.179183-3.192846 55.638181-0.186249 97.902774 47.649136 103.650685 21.378766 2.569522 49.928132 0 76.067513 0 47.131321 0 101.748434 0 152.140143 0 29.007826 0 58.693108 2.799766 73.561333-10.030447C698.239637 656.098277 692.848639 615.15989 693.529166 580.250822zM380.056144 628.733023c0-16.717753 0-33.435507 0-50.15326 87.214844 0 174.429688 0 261.643509 0 0 17.553795 0 35.107589 0 52.66036-86.934447 0-173.872987 0-260.808457 0C379.916969 631.09993 379.983487 629.919035 380.056144 628.733023zM329.064754 469.077813c0-105.787348 0-211.132628 0-318.474378 0-27.204595-6.254704-85.166705 10.030858-96.963379 6.478817-4.693906 23.183952-5.386684 30.929674 0 16.849427 11.710716 10.866934 68.023256 10.866934 96.127338 0 108.72219 0 218.881103 0 321.818543-16.995766 0-33.994601 0-50.99139 0C328.926602 471.445744 328.992096 470.264848 329.064754 469.077813zM484.546128 469.077813c0-95.232968 0-206.437699 0-308.443931 0-24.335245-5.653998-81.938174 4.179354-98.635461 6.497237-11.031241 28.363117-16.032138 39.288381-7.52437 14.815011 11.536754 8.360754 72.541153 8.360754 97.79942 0 108.99746 0 213.551724 0 319.31042-16.996789 0-33.996648 0-50.992414 0C484.407976 471.445744 484.474494 470.264848 484.546128 469.077813zM641.699653 469.077813c0-102.497419 0-216.58992 0-322.654584 0-33.044604-6.441976-83.72896 15.046288-92.783173 9.356472-3.943822 25.961319-0.893346 30.092575 2.506077 14.029079 11.549034 7.525702 73.467245 7.525702 97.79942 0 108.447944 0 212.4486 0 317.638337-17.277186 0-34.554373 0-51.828489 0C641.561501 471.445744 641.628019 470.264848 641.699653 469.077813z"  horiz-adv-x="1024" />

    
    <glyph glyph-name="tongji" unicode="&#58920;" d="M918.025138-50.417905l-811.443431 0c-23.205442 0-41.972623 18.789948-41.972623 41.971927l0 671.513994c0 23.180955 18.767181 41.959647 41.972623 41.959647 23.158368 0 41.972623-18.778692 41.972623-41.959647l0-531.617803 0-97.925287 769.470807 0c23.158368 0 41.973647-18.789948 41.973647-41.970904C959.997761-31.626933 941.182483-50.417905 918.025138-50.417905M820.072302 75.49583l-83.945247 0c-23.158368 0-41.972623 18.778692-41.972623 41.959647L694.154432 411.24157c0 23.193235 18.814255 41.970904 41.972623 41.970904l83.945247 0c23.206465 0 41.973647-18.778692 41.973647-41.970904l0-293.786093C862.044925 94.274522 843.278767 75.49583 820.072302 75.49583M582.242104 75.49583l-83.945247 0c-23.181905 0-41.973647 18.778692-41.973647 41.959647L456.32321 579.125185c0 23.180955 18.791742 41.970904 41.973647 41.970904l83.945247 0c23.180882 0 41.972623-18.789948 41.972623-41.970904l0-461.669708C624.214727 94.274522 605.424009 75.49583 582.242104 75.49583M344.411906 75.49583l-83.945247 0c-23.205442 0-41.972623 18.778692-41.972623 41.959647l0 83.941807c0 23.179932 18.767181 41.970904 41.972623 41.970904l83.945247 0c23.181905 0 41.973647-18.789948 41.973647-41.970904l0-83.941807C386.384529 94.274522 367.593811 75.49583 344.411906 75.49583"  horiz-adv-x="1024" />

    
    <glyph glyph-name="add" unicode="&#59005;" d="M832.006 255.996c0-17.668-14.334-32-32.004-32l-224.002 0.008v-224.012c0-17.664-14.332-31.996-31.996-32l-64.006 0.004c-17.672-0.004-32.002 14.332-32.002 32l-0 224.008-224.002-0.008c-17.674 0-32 14.328-32 32.004l0.002 64.002c0 17.67 14.33 32.004 31.998 32h224.006l-0.004 224c0.004 17.676 14.332 32.004 32.006 32.004h63.996c17.676-0.002 31.998-14.33 32.004-32.004l-0.006-224h224c17.676 0 32.010-14.332 32.010-32.004v-64.002z"  horiz-adv-x="1024" />

    
    <glyph glyph-name="jiahao1" unicode="&#58893;" d="M812.679424 752.794573 208.932079 752.794573c-83.363045 0-150.939906-67.578118-150.939906-150.935618l0-603.724051c0-83.3575 67.576861-150.929478 150.939906-150.929478l603.747345 0c83.363045 0 150.939906 67.571978 150.939906 150.929478L963.61933 601.858956C963.61933 685.216455 896.042469 752.794573 812.679424 752.794573zM780.10008 242.332602l-215.466164 0-0.002047-196.173938c0-30.420847-24.658621-55.095829-55.086885-55.095829-30.428264 0.01228-55.092001 24.674982-55.086885 55.095829L454.458101 242.332602 238.979657 242.332602c-31.840485 0-57.666748 25.825179-57.666748 57.667398-0.005117 31.854499 25.816029 57.673537 57.672888 57.673537l215.473327-0.005117L454.459124 556.272711c-0.005117 30.420847 24.658621 55.089689 55.086885 55.084573 30.428264 0 55.080745-24.657586 55.092001-55.084573l-0.002047-198.605314 215.46514-0.005117c31.845602 0.01228 57.661631-25.807782 57.666748-57.662281C837.767852 268.157781 811.956939 242.332602 780.10008 242.332602z"  horiz-adv-x="1024" />

    
    <glyph glyph-name="search1" unicode="&#58976;" d="M801.852504 429.455261c-0.016373 182.64583-148.606573 331.23603-331.244216 331.23603-88.478124 0-171.654498-34.452673-234.231719-97.027847-62.559824-62.569034-97.012498-145.738245-97.012498-234.208183 0-88.478124 34.452673-171.656545 97.020684-234.223532 62.569034-62.559824 145.745409-97.020684 234.223532-97.020684 82.280981 0 159.744237 30.126134 220.551138 84.620259l24.11728-24.11728-1.411139-1.411139c-6.236028-6.235005-6.236028-16.34527 0-22.580275L834.270844 14.31631c6.235005-6.235005 16.34527-6.235005 22.580275 0l25.394367 25.402553c6.237051 6.227842 6.237051 16.337083 0 22.574135L761.841232 182.698275c-6.235005 6.235005-16.34527 6.235005-22.580275 0l-1.411139-1.411139-23.945365 23.953551C770.509658 266.561287 801.852504 345.513454 801.852504 429.455261zM270.252097 229.099071c-53.526077 53.517891-82.998319 124.669394-82.998319 200.355167 0 75.67861 29.472242 146.828067 82.990133 200.348004 53.519937 53.517891 124.685767 82.998319 200.363354 83.005482 156.229181-0.008186 283.3453-127.124306 283.353486-283.353486 0-75.67861-29.487591-146.845463-83.005482-200.363354-53.519937-53.517891-124.669394-82.990133-200.348004-82.998319C394.921491 146.093589 323.772035 175.58118 270.252097 229.099071z"  horiz-adv-x="1024" />

    
    <glyph glyph-name="search1" unicode="&#58894;" d="M889.132336 35.00872C885.010459 39.130597 751.58361 172.557446 677.598572 246.542484c36.308951 50.146097 57.728796 111.777783 57.728796 178.420599 0 168.212096-136.362714 304.57481-304.57481 304.57481S126.177747 593.176203 126.177747 424.964106s136.362714-304.57481 304.57481-304.57481c70.178339 0 134.801149 23.74889 186.303126 63.629179 74.093509-74.093509 206.134801-206.134801 210.543204-210.543204 6.139837-6.139837 37.691437-17.045211 58.499345 3.762697C906.905118-1.955146 894.845455 29.295602 889.132336 35.00872zM213.199707 424.964106c0 120.151497 97.402377 217.553874 217.552851 217.553874s217.552851-97.402377 217.552851-217.553874-97.402377-217.552851-217.552851-217.552851S213.199707 304.812609 213.199707 424.964106z"  horiz-adv-x="1024" />

    
    <glyph glyph-name="gth" unicode="&#58907;" d="M478.32 220.643h67.358v269.429h-67.358v-269.429zM511.998 658.467c-204.603 0-370.466-165.83-370.466-370.467 0-204.575 165.862-370.468 370.466-370.468 204.605 0 370.468 165.893 370.468 370.468 0 204.638-165.863 370.467-370.468 370.467zM511.998-15.11c-167.405 0-303.11 135.7-303.11 303.11 0 167.407 135.705 303.11 303.11 303.11 167.408 0 303.11-135.701 303.11-303.11 0-167.409-135.7-303.11-303.11-303.11zM478.32 85.927h67.358v67.356h-67.358v-67.356z"  horiz-adv-x="1024" />

    
    <glyph glyph-name="jiahao1" unicode="&#59021;" d="M512-131.706279c-58.700937 0-115.659183 11.501962-169.292708 34.187637-51.791573 21.905916-98.298793 53.261041-138.231271 93.193519-39.932478 39.931454-71.287603 86.440721-93.193519 138.231271-22.684652 53.633524-34.187637 110.591771-34.187637 169.292708 0 58.699913 11.501962 115.65816 34.187637 169.292708 21.905916 51.791573 53.261041 98.299817 93.193519 138.231271 39.932478 39.932478 86.440721 71.287603 138.231271 93.193519C396.340817 726.602028 453.299063 738.103989 512 738.103989c58.699913 0 115.65816-11.501962 169.292708-34.187637 51.791573-21.905916 98.299817-53.260018 138.232295-93.193519 39.932478-39.932478 71.287603-86.440721 93.192495-138.231271 22.685675-53.633524 34.187637-110.591771 34.187637-169.292708 0-58.700937-11.501962-115.659183-34.187637-169.292708-21.904892-51.79055-53.260018-98.299817-93.192495-138.231271-39.932478-39.932478-86.440721-71.287603-138.232295-93.193519C627.65816-120.204317 570.699913-131.706279 512-131.706279zM512 686.93868c-102.500489 0-198.866257-39.916105-271.344988-112.394836S128.260176 405.699344 128.260176 303.198855c0-102.500489 39.916105-198.866257 112.394836-271.344988S409.499511-80.540969 512-80.540969s198.866257 39.916105 271.344988 112.394836S895.739824 200.698367 895.739824 303.198855c0 102.500489-39.916105 198.866257-112.394836 271.344988S614.500489 686.93868 512 686.93868zM757.593488 277.316372l-491.186975 0c-14.128789 0-25.582655 11.453866-25.582655 25.582655s11.453866 25.582655 25.582655 25.582655l491.186975 0c14.128789 0 25.582655-11.453866 25.582655-25.582655S771.721253 277.316372 757.593488 277.316372zM512 32.022713c-14.128789 0-25.582655 11.453866-25.582655 25.582655l0 491.186975c0 14.128789 11.453866 25.582655 25.582655 25.582655s25.582655-11.453866 25.582655-25.582655l0-491.186975C537.582655 43.476579 526.127765 32.022713 512 32.022713z"  horiz-adv-x="1024" />

    
    <glyph glyph-name="icon11" unicode="&#59011;" d="M592.341816 193.796166c-8.815783 3.25616-17.613146 6.374174-26.327622 9.255805-5.5279 1.798972-40.417525 17.530258-18.61701 83.816964l-0.301875 0c56.825217 58.519812 100.256378 152.745846 100.256378 245.477854 0 142.606929-94.832855 217.334887-205.02656 217.334887-110.262266 0-204.554816-74.726935-204.554816-217.334887 0-93.107561 43.194778-187.705056 100.360755-246.089791 22.276353-58.45432-17.565051-80.153528-25.903973-83.20605-115.414613-41.736567-250.801093-117.821429-250.801093-192.922894 0-20.275789 0-8.003278 0-28.14399 0-96.461959 176.309518-122.637108 350.331947-125.317147-2.51017 13.360286-2.492774 27.2619 1.475608 40.792055l43.010583 146.541541c4.50664 15.491833 13.390985 29.42824 25.799596 40.514739L592.341816 193.796166zM813.168224 157.888352l-33.719986 33.772174 0.187265 0.201591-45.11143 45.097104L529.22429 33.488087c-2.812045-2.270716-5.221932-5.152347-6.304589-8.881274l-43.062771-146.71141c-1.88186-6.443759-0.100284-13.325493 4.596691-18.040888 3.475148-3.489474 8.134261-5.357008 12.897751-5.357008 1.715061 0 3.427052 0.239454 5.121648 0.74599l146.759505 43.093471c3.475148 1.017166 6.191003 3.187599 8.392134 5.767354l205.79404 203.977671-50.027393 50.009997L813.168224 157.888352zM548.549427-93.217686l-17.172101 17.189498 23.175839 78.93477 9.902534-9.902534 48.499597-3.968381 2.680039-47.263443 11.867282-11.83249L548.549427-93.217686zM753.172805 257.436602 882.066407 128.561419 911.546835 156.19478 782.653233 285.104755ZM945.454086 259.301066l-61.793368 61.742203c-17.037025 17.057491-44.535309 17.22429-61.405535 0.340761l-18.953677-19.155269 123.522268-123.552967 18.952654 19.189038C962.643584 214.714592 962.508507 242.212876 945.454086 259.301066z"  horiz-adv-x="1024" />

    
    <glyph glyph-name="xiugai" unicode="&#58903;" d="M846.176 423.2 485.024 61.632l0 0-83.392 83.36L763.008 506.368 846.176 423.2 846.176 423.2zM868.8 445.824l55.328 55.392c12.512 12.48 12.384 32.8-0.128 45.312l-37.792 37.664c-12.576 12.544-32.768 12.64-45.344 0.096l-55.264-55.296L868.8 445.824 868.8 445.824zM380.928 120.448l-20.48-99.584 100.32 19.776L380.928 120.448 380.928 120.448 380.928 120.448zM704 492 704 492l-192 224L160.096 716C124.672 716 96 687.264 96 651.776l0-735.52C96-119.264 124.512-148 159.936-148l480.128 0C675.36-148 704-119.264 704-84.32L704 236l242.56 242.56c25.088 25.088 25.152 65.728 0.32 90.56l-37.76 37.76c-24.928 24.928-65.184 25.056-90.56-0.32L704 492 704 492 704 492zM672 204l0-288.224C672-101.76 657.696-116 640-116L160-116c-17.44 0-32 14.24-32 31.872L128 652.128C128 669.44 142.272 684 159.872 684L480 684l0-159.808C480 488.384 508.64 460 543.936 460L672 460 352 140l-32-160 160 32L672 204 672 204 672 204zM512 668l0-143.712C512 506.464 526.432 492 543.872 492L662.4 492 512 668 512 668z"  horiz-adv-x="1024" />

    
    <glyph glyph-name="icon123" unicode="&#59001;" d="M513.991624 746.895536c-247.548669 0-448.255744-200.707075-448.255744-448.255744 0-247.548669 200.707075-448.255744 448.255744-448.255744 247.548669 0 448.255744 200.707075 448.255744 448.255744C962.248392 546.187435 761.540292 746.895536 513.991624 746.895536zM734.340228 345.48036l-187.773309-236.357445c-11.26605-12.748236-18.751808-20.382623-32.537369-20.382623-13.785562 0-21.826883 8.967944-32.537369 20.382623l-187.811235 236.357445c-2.594338 5.262478-3.928921 10.968793-3.928921 16.676132 0 6.818466 1.853245 13.52623 5.448008 19.454975 6.596036 10.931892 18.380749 18.195219 30.980356 18.195219l375.659371 0c12.674434 0 24.421221-7.263327 31.018282-18.195219C739.490979 370.679576 740.084468 356.968841 734.340228 345.48036z"  horiz-adv-x="1028" />

    
    <glyph glyph-name="zaixiankefu" unicode="&#58886;" d="M510.976694 748.185602c-228.876758 0-415.086763-186.223309-415.086763-415.086763 0-134.192282 63.816444-258.171967 171.872462-336.290139l-63.62304-104.134709c-5.505387-9.148357-4.549619-20.789489 2.396583-28.89612 4.803399-5.63944 11.737322-8.686846 18.84009-8.686846 3.133364 0 6.304589 0.604774 9.328459 1.838881l171.823344 74.464969c34.219359-8.881274 69.310575-13.382798 104.449887-13.382798 228.876758 0 415.086763 186.197726 415.086763 415.086763C926.063457 561.963317 739.852428 748.185602 510.976694 748.185602zM510.976694-32.425112c-33.444716 0-66.865897 4.621251-99.331309 13.769608-5.311982 1.52575-10.963703 1.162476-16.056698-0.895393l-110.523209-49.514717 37.244252 60.381206c6.933923 11.494799 3.437286 26.426883-7.876388 33.662681-105.804744 67.664076-168.979576 182.835142-168.979576 308.120566 0 201.541179 163.970492 365.523951 365.523951 365.523951S876.500645 534.640018 876.500645 333.098839C876.500645 131.533101 712.530153-32.425112 510.976694-32.425112zM713.606671 409.814058c0 27.371394-22.191418 49.562812-49.575092 49.562812-27.369348 0-49.562812-22.191418-49.562812-49.562812 0-27.371394 22.192442-49.562812 49.562812-49.562812C691.415252 360.252269 713.606671 382.443687 713.606671 409.814058zM414.489152 409.814058c0 27.371394-22.191418 49.562812-49.575092 49.562812-27.371394 0-49.562812-22.191418-49.562812-49.562812 0-27.371394 22.191418-49.562812 49.562812-49.562812C392.297734 360.252269 414.489152 382.443687 414.489152 409.814058zM629.79994 267.031121c-12.668531 5.204535-27.140127-0.870834-32.320103-13.527085-0.205685-0.509606-21.24793-50.16861-83.007529-50.16861-63.646576 0-80.599689 43.344181-82.390475 48.52211-4.235464 12.875239-18.149359 19.990287-31.060413 15.851013-13.045107-4.137227-20.256346-18.076704-16.092513-31.121811 1.076518-3.387144 27.539216-82.814124 129.544425-82.814124 94.66094 0 127.524418 77.635171 128.868019 80.950683C648.532583 247.380572 642.457214 261.853192 629.79994 267.031121zM244.335844 305.583159c-5.311982 0-9.595542-4.308119-9.595542-9.584286 0-5.323239 4.28356-9.631358 9.595542-9.631358 5.299703 0 9.583263 4.308119 9.583263 9.631358C253.919107 301.27504 249.635547 305.583159 244.335844 305.583159zM288.440341 305.583159c-5.311982 0-9.595542-4.308119-9.595542-9.584286 0-5.323239 4.28356-9.631358 9.595542-9.631358 5.300726 0 9.584286 4.308119 9.584286 9.631358C298.024627 301.27504 293.741068 305.583159 288.440341 305.583159zM266.406512 275.695454c-5.311982 0-9.607822-4.308119-9.607822-9.584286 0-5.299703 4.295839-9.607822 9.607822-9.607822 5.288446 0 9.572006 4.308119 9.572006 9.607822C275.977495 271.387335 271.693936 275.695454 266.406512 275.695454zM310.499753 275.695454c-5.299703 0-9.595542-4.308119-9.595542-9.584286 0-5.299703 4.295839-9.607822 9.595542-9.607822 5.299703 0 9.584286 4.308119 9.584286 9.607822C320.084039 271.387335 315.798433 275.695454 310.499753 275.695454zM288.440341 246.895525c-5.311982 0-9.595542-4.307096-9.595542-9.606799 0-5.300726 4.28356-9.607822 9.595542-9.607822 5.300726 0 9.584286 4.307096 9.584286 9.607822C298.024627 242.589452 293.741068 246.895525 288.440341 246.895525zM338.160743 305.583159c-5.311982 0-9.595542-4.308119-9.595542-9.584286 0-5.323239 4.28356-9.631358 9.595542-9.631358 5.300726 0 9.584286 4.308119 9.584286 9.631358C347.744006 301.27504 343.461469 305.583159 338.160743 305.583159zM704.725396 305.583159c-5.311982 0-9.595542-4.308119-9.595542-9.584286 0-5.323239 4.28356-9.631358 9.595542-9.631358 5.300726 0 9.584286 4.308119 9.584286 9.631358C714.309682 301.27504 710.026122 305.583159 704.725396 305.583159zM748.830917 305.583159c-5.311982 0-9.595542-4.308119-9.595542-9.584286 0-5.323239 4.28356-9.631358 9.595542-9.631358 5.299703 0 9.583263 4.308119 9.583263 9.631358C758.414179 301.27504 754.130619 305.583159 748.830917 305.583159zM726.797088 275.695454c-5.311982 0-9.607822-4.308119-9.607822-9.584286 0-5.299703 4.295839-9.607822 9.607822-9.607822 5.287423 0 9.570983 4.308119 9.570983 9.607822C736.367047 271.387335 732.084511 275.695454 726.797088 275.695454zM770.890328 275.695454c-5.300726 0-9.595542-4.308119-9.595542-9.584286 0-5.299703 4.294816-9.607822 9.595542-9.607822 5.299703 0 9.583263 4.308119 9.583263 9.607822C780.473591 271.387335 776.190031 275.695454 770.890328 275.695454zM748.830917 246.895525c-5.311982 0-9.595542-4.307096-9.595542-9.606799 0-5.300726 4.28356-9.607822 9.595542-9.607822 5.299703 0 9.583263 4.307096 9.583263 9.607822C758.414179 242.589452 754.130619 246.895525 748.830917 246.895525zM798.551318 305.583159c-5.311982 0-9.595542-4.308119-9.595542-9.584286 0-5.323239 4.28356-9.631358 9.595542-9.631358 5.299703 0 9.583263 4.308119 9.583263 9.631358C808.134581 301.27504 803.851021 305.583159 798.551318 305.583159z"  horiz-adv-x="1024" />

    
    <glyph glyph-name="shangchuan" unicode="&#58947;" d="M469.504652-3.923988 469.504652 144.249727l-93.217055 0 144.695496 176.00048 144.001695-175.304631-95.305623-0.696872 0.695848-148.173714 222.61003 0c0 0 133.564995-1.391696 165.564803 150.261259-1.387603 81.390705-1.38965 64.696488-19.476587 110.609167-26.435069 36.870746-36.868699 54.957683-101.567233 84.175121 11.129478 49.39192 11.129478 123.827213-45.217854 192.697767-56.347333 68.870554-150.262282 78.608336-198.956308 69.565379-48.697095-9.04398-118.959346-39.653115-157.219741-126.609583-27.825742 29.913287-61.913095 52.17429-132.869147 51.478442-31.304983-1.390673-97.04115-28.175713-121.736599-99.132788-8.000208-20.174482-11.82635-54.259788-2.783393-90.782609-22.956851-7.30436-51.129494-25.739221-74.782194-50.782593-23.652699-25.043373-52.524261-88.349187-36.871769-153.045675 15.652492-64.695464 54.260811-120.344902 149.740396-138.433886C275.24532-4.794821 469.504652-3.923988 469.504652-3.923988z"  horiz-adv-x="1024" />

    
    <glyph glyph-name="iconfont95" unicode="&#59268;" d="M736 576h-448c-159.056 0-288-128.944-288-288s128.944-288 288-288h448c159.056 0 288 128.944 288 288s-128.944 288-288 288zM736 48h-448c-132.544 0-240 107.456-240 240s107.456 240 240 240h448c132.544 0 240-107.456 240-240s-107.456-240-240-240zM555.664 288c0-97.202 78.798-176 176-176s176 78.798 176 176c0 97.202-78.798 176-176 176-97.202 0-176-78.798-176-176z"  horiz-adv-x="1024" />

    
    <glyph glyph-name="search1" unicode="&#59009;" d="M48-212l672 0c26.464 0 48 21.536 48 48l0 240c0 0.32-0.16 0.576-0.192 0.896 1.76 1.12 3.584 2.176 5.312 3.36l255.552-255.552c3.136-3.136 7.232-4.704 11.328-4.704s8.192 1.568 11.328 4.672c6.24 6.24 6.24 16.384 0 22.624l-253.216 253.216c40.448 37.984 65.888 91.776 65.888 151.488 0 73.504-38.432 138.112-96.192 175.104 0.032 0.32 0.192 0.576 0.192 0.896l0 80c0 0.544-0.256 0.992-0.288 1.504-0.064 0.736-0.256 1.376-0.416 2.08-0.544 2.272-1.472 4.32-2.88 6.112-0.224 0.288-0.192 0.64-0.416 0.928l-256 288c-0.096 0.096-0.224 0.096-0.32 0.192-1.92 2.08-4.384 3.456-7.136 4.288-0.608 0.192-1.152 0.256-1.792 0.352-0.928 0.16-1.792 0.544-2.752 0.544l-448 0c-26.464 0-48-21.536-48-48l0-928c0-26.464 21.536-48 48-48zM832 252c0-97.056-78.976-176-176-176s-176 78.944-176 176 78.976 176 176 176 176-78.944 176-176zM512 753.92l204.384-229.92-188.384 0c-7.04 0-16 13.44-16 24l0 205.92zM32 764c0 8.832 7.2 16 16 16l432 0 0-232c0-25.888 20.96-56 48-56l208 0 0-48.032c-24.64 10.304-51.648 16.032-80 16.032-58.816 0-111.872-24.64-149.728-64l-330.272 0c-8.832 0-16-7.168-16-16s7.168-16 16-16l305.024 0c-18.08-28.128-29.504-60.832-32.192-96l-272.832 0c-8.832 0-16-7.168-16-16s7.168-16 16-16l272.8 0c2.688-35.168 14.144-67.872 32.192-96l-304.992 0c-8.832 0-16-7.168-16-16s7.168-16 16-16l328 0c0.672 0 1.248 0.288 1.92 0.384 37.888-39.584 91.104-64.384 150.08-64.384 28.352 0 55.36 5.728 80 16.064l0-224.064c0-8.832-7.2-16-16-16l-672 0c-8.96 0-16 7.04-16 16l0 928zM176 492l192 0c8.832 0 16 7.168 16 16s-7.168 16-16 16l-192 0c-8.832 0-16-7.168-16-16s7.168-16 16-16zM176-20l416 0c8.832 0 16 7.168 16 16s-7.168 16-16 16l-416 0c-8.832 0-16-7.168-16-16s7.168-16 16-16z"  horiz-adv-x="1057" />

    
    <glyph glyph-name="weibiaoti1" unicode="&#58930;" d="M942.10048-27.19872c0-23.42912-18.9952-42.41408-42.41408-42.41408-23.42912 0-42.41408 18.9952-42.41408 42.41408 0 0.26624 0.07168 0.512 0.08192 0.77824L857.088-26.42048c0.01024 0.98304 0.14336 1.92512 0.14336 2.90816 0 69.24288-27.392 131.95264-71.69024 177.98144l0.256 0.256C778.24 162.10816 773.5296 172.38912 773.5296 183.78624c0 22.48704 18.2272 40.704 40.704 40.704 11.39712 0 21.67808-4.7104 29.07136-12.25728l0.07168 0.08192c60.99968-61.15328 98.72384-145.53088 98.72384-238.73536l-0.08192 0C942.0288-26.68672 942.10048-26.93248 942.10048-27.19872zM604.64128 232.13952l0-0.1024c-0.2048 0-0.4096 0.03072-0.62464 0.03072-139.83744 0-253.20448-114.42176-253.20448-255.58016 0-0.69632 0.06144-1.37216 0.1024-2.048 0.02048-0.55296 0.16384-1.0752 0.16384-1.6384 0-23.42912-18.9952-42.41408-42.41408-42.41408-23.42912 0-42.41408 18.9952-42.41408 42.41408 0 0.26624 0.07168 0.512 0.08192 0.77824l-0.38912 0c0 137.24672 81.93024 255.15008 199.424 308.11136-48.896 40.12032-80.10752 100.99712-80.10752 169.17504 0 120.82176 97.9456 218.75712 218.75712 218.75712S822.784 571.67744 822.784 450.86592C822.784 330.2592 725.16608 232.47744 604.64128 232.13952zM604.02688 590.34496c-76.88192 0-139.20256-62.33088-139.20256-139.2128 0-76.88192 62.32064-139.20256 139.20256-139.20256s139.2128 62.33088 139.2128 139.20256C743.22944 528.02432 680.9088 590.34496 604.02688 590.34496zM345.48736 551.8528c-46.4896-12.82048-80.61952-54.72256-80.61952-104.57088 0-41.74848 23.95136-77.93664 59.04384-96.12288 14.20288-7.36256 28.0064-21.30944 30.26944-45.60896 1.95584-21.06368-4.29056-52.69504-32.1536-60.37504-93.184-25.69216-161.96608-108.31872-165.34528-207.43168 0.2048-1.59744 0.49152-3.1744 0.49152-4.82304 0-20.76672-16.83456-37.60128-37.60128-37.60128-20.76672 0-37.60128 16.83456-37.60128 37.60128 0 0.36864 0.1024 0.70656 0.11264 1.0752l-0.19456 0c0 126.19776 74.91584 226.62144 180.20352 270.12096-43.5712 33.30048-71.7312 85.21728-71.7312 143.70816 0 73.55392 44.38016 136.78592 108.20608 165.43744 29.8496 13.40416 51.58912-2.60096 56.85248-23.1936C361.73824 565.40032 345.48736 551.8528 345.48736 551.8528z"  horiz-adv-x="1024" />

    
    <glyph glyph-name="tianjia" unicode="&#58931;" d="M938.666667 812 85.333333 812C38.229333 812 0 773.813333 0 726.666667l0-853.333333c0-47.104 38.229333-85.333333 85.333333-85.333333l853.333333 0c47.146667 0 85.333333 38.229333 85.333333 85.333333L1024 726.666667C1024 773.813333 985.813333 812 938.666667 812zM810.666667 214.666667l-213.333333 0 0-213.333333-170.666667 0 0 213.333333L213.333333 214.666667l0 170.666667 213.333333 0L426.666667 598.666667l170.666667 0 0-213.333333 213.333333 0L810.666667 214.666667z"  horiz-adv-x="1024" />

    
    <glyph glyph-name="zliconhelp01" unicode="&#58969;" d="M874.036686 662.020687c-199.929752 199.929752-524.111622 199.929752-724.041374 0-199.929752-199.961751-199.929752-524.111622 0-724.041374 199.929752-199.929752 524.111622-199.929752 724.041374 0C1073.966439 137.909065 1073.966439 462.090935 874.036686 662.020687zM330.501672 188.979469c-0.991969-18.015437-10.495672-27.007156-28.511109-27.007156-19.999375 0-30.015062 8.991719-30.015062 27.007156l0 83.997375-119.99625 0 0-83.997375c-0.991969-18.015437-10.495672-27.007156-28.511109-27.007156-19.007406 0-28.511109 8.991719-28.511109 27.007156l0 219.001156c0 19.007406 9.503703 28.991094 28.511109 30.015062 18.015437-0.991969 27.487141-11.007656 28.511109-30.015062l0-80.989469 119.99625 0 0 80.989469c0 19.007406 9.983688 28.991094 30.015062 30.015062 18.015437-0.991969 27.487141-11.007656 28.511109-30.015062L330.501672 188.979469zM489.984688 162.004312l-99.004906 0c-18.015437 0.991969-27.51914 10.495672-28.511109 28.511109l0 211.481391c0 20.991344 9.503703 31.999 28.511109 32.990969l95.997 0c15.9995-0.991969 24.991219-9.503703 27.007156-25.503203-2.015937-18.015437-11.007656-27.007156-27.007156-27.007156l-67.485891 0 0-55.486266 63.006031 0c16.991469-2.015937 26.495172-11.007656 28.511109-27.007156-2.015937-16.991469-11.487641-26.015187-28.511109-27.007156l-63.006031 0 0-58.494172 70.493797 0c16.991469-0.991969 26.015187-9.503703 27.007156-25.503203C514.975907 170.996031 505.984188 162.004312 489.984688 162.004312zM673.498953 162.004312l-95.997 0c-19.007406 0-28.511109 10.495672-28.511109 31.487016l0 214.489297c0 19.007406 9.503703 28.991094 28.511109 30.015062 18.015437-0.991969 27.487141-11.007656 28.511109-30.015062l0-193.497953 67.485891 0c18.015437-0.991969 27.487141-10.015687 28.511109-27.007156C698.970157 170.484047 689.466454 162.004312 673.498953 162.004312zM832.981969 251.9855l-42.014687 0 0-63.006031c-0.991969-18.015437-10.495672-27.007156-28.511109-27.007156-19.007406 0-28.511109 8.991719-28.511109 27.007156l0 215.99325c0 19.007406 9.503703 28.991094 28.511109 30.015062l68.989844 0c60.990094-3.999875 93.501078-34.494922 97.500953-91.485141C924.979094 286.480422 892.980094 255.985375 832.981969 251.9855zM829.974063 383.981376l-39.006781 0 0-80.989469 39.006781 0c23.99925 0.991969 36.990844 14.495547 39.006781 40.510734C866.964907 368.49386 853.973313 381.997438 829.974063 383.981376z"  horiz-adv-x="1024" />

    
    <glyph glyph-name="tianjia1" unicode="&#58910;" d="M513.883586 812c-282.744343 0-511.974197-229.229854-511.974197-511.974197 0-282.744343 229.178249-512.025803 511.974197-512.025803 282.795948 0 512.025803 229.281459 512.025803 512.025803C1025.909389 582.770146 796.679534 812 513.883586 812zM513.883586-159.311193c-253.639067 0-459.233785 205.697929-459.233785 459.336995 0 253.639067 205.594719 459.28539 459.233785 459.28539 253.690672 0 459.28539-205.646324 459.28539-459.28539C973.168976 46.386736 767.574258-159.311193 513.883586-159.311193zM773.715265 318.810059l-240.995817 0L532.719448 559.754271c0 14.552638-11.817568 26.370206-26.370206 26.370206-14.501033 0-26.318601-11.817568-26.318601-26.370206l0-240.944212-240.995817 0c-14.501033 0-26.318601-11.765963-26.318601-26.318601 0-14.552638 11.817568-26.370206 26.318601-26.370206l240.995817 0 0-240.995817c0-14.501033 11.817568-26.318601 26.318601-26.318601 14.552638 0 26.370206 11.817568 26.370206 26.318601l0 240.995817 240.995817 0c14.501033 0 26.318601 11.817568 26.318601 26.370206C800.033866 307.044096 788.216298 318.810059 773.715265 318.810059z"  horiz-adv-x="1026" />

    
    <glyph glyph-name="shanchu1" unicode="&#58885;" d="M633.904881-65.713143c13.465987 0 24.380976 10.914989 24.380976 24.377976l24.380976 512.0025c0 13.465987-10.913989 24.380976-24.380976 24.380976-13.462987 0-24.380976-10.914989-24.380976-24.380976l-24.379976-512.0025C609.524905-54.798154 620.438894-65.713143 633.904881-65.713143zM390.095119-65.713143c13.465987 0 24.380976 10.914989 24.380976 24.377976l-24.380976 512.0025c0 13.465987-10.914989 24.380976-24.380976 24.380976-13.465987 0-24.378976-10.914989-24.378976-24.380976l24.378976-512.0025C365.714143-54.798154 376.632132-65.713143 390.095119-65.713143zM512-65.713143c13.465987 0 24.380976 10.914989 24.380976 24.377976L536.380976 470.667333c0 13.465987-10.914989 24.380976-24.380976 24.380976-13.462987 0-24.380976-10.914989-24.380976-24.380976l0-512.0025C487.619024-54.798154 498.537013-65.713143 512-65.713143zM950.856571 641.333167l-97.523905 0-48.761952 0-73.142929 0 0 73.139929C731.428786 768.336043 687.765828 812 633.904881 812l-243.809762 0c-53.859947 0-97.523905-43.663957-97.523905-97.526905l0-73.139929-73.142929 0-48.759952 0L73.144429 641.333167c-13.463987 0-24.381976-10.914989-24.381976-24.383976 0-13.462987 10.917989-24.377976 24.381976-24.377976l102.2439 0 68.420933-707.05031c0-53.859947 43.663957-97.520905 97.524905-97.520905l341.331667 0c53.861947 0 97.523905 43.660957 97.523905 97.520905l68.425933 707.05031 102.2409 0c13.465987 0 24.380976 10.914989 24.380976 24.377976C975.237548 630.418177 964.322558 641.333167 950.856571 641.333167zM341.335167 714.473095c0 26.931974 21.828979 48.761952 48.759952 48.761952l243.809762 0c26.932974 0 48.761952-21.829979 48.761952-48.761952l0-73.139929L341.335167 641.333167 341.335167 714.473095zM731.428786-114.478095c0-26.928974-21.829979-48.758952-48.761952-48.758952L341.335167-163.237048c-26.929974 0-48.762952 21.829979-48.762952 48.758952l-68.422933 707.05031 575.704438 0L731.428786-114.478095z"  horiz-adv-x="1024" />

    
    <glyph glyph-name="chenggongzhuangtai" unicode="&#58884;" d="M92.781638 330.199813l-31.438013-43.582611 330.617953-329.535295 570.691727 631.423927-36.459377 43.831274L391.962601 150.903264 92.781638 330.199813z"  horiz-adv-x="1024" />

    
    <glyph glyph-name="zaixianjiedanxian" unicode="&#58913;" d="M920.279219 56.976034 531.441283 56.976034l0-97.207949 252.744351 0 0-38.883589L239.813343-79.115504 239.813343-40.232938l252.743328 0 0 97.207949L103.718735 56.975011c-21.472034 0-38.883589 17.430998-38.883589 38.885636L64.835146 640.232938c0 21.4925 17.411555 38.883589 38.883589 38.883589l816.560484 0c21.473057 0 38.883589-17.391089 38.883589-38.883589l0-544.372292C959.162808 74.407032 941.753299 56.976034 920.279219 56.976034zM920.279219 611.069735c0 16.1007-13.063527 29.163203-29.164227 29.163203L132.881938 640.232938c-16.108886 0-29.163203-13.062504-29.163203-29.163203l0-486.047932c0-16.099676 13.054317-29.161157 29.163203-29.161157l758.233054 0c16.1007 0 29.164227 13.06148 29.164227 29.161157L920.279219 611.069735zM457.147206 301.367137l0.085958 0.075725-55.212486 55.211463 27.492144 27.492144 55.211463-55.210439L594.626347 438.865721l27.493168-27.492144L484.649584 273.874993 457.147206 301.367137z"  horiz-adv-x="1024" />

    
    <glyph glyph-name="tongji1" unicode="&#59301;" d="M112.270505 747.696462l31.978319 0 0-863.413582 767.479649 0 0-31.978319L112.270505-147.695438 112.270505 747.696462zM400.075373 363.956637l0-415.71712-191.869912 0 0 223.848231L400.075373 363.956637zM655.901922 331.978319l0-383.738801-191.869912 0L464.03201 363.956637l95.934956-127.912251L655.901922 331.978319zM911.728472 523.848231l0-575.608713-191.869912 0L719.85856 363.956637 911.728472 523.848231zM240.183779 300l-31.978319 31.978319 223.848231 223.848231 127.913275-127.913275 255.82655 223.848231-63.956637 63.956637 159.891593 0 0-159.891593-63.956637 63.956637-287.804868-255.82655-127.913275 127.913275L240.183779 300z"  horiz-adv-x="1024" />

    
    <glyph glyph-name="tishi" unicode="&#59054;" d="M187.732004 739.473221c-13.330296 13.331627-34.948251 13.331627-48.263899 0-13.335622-13.326301-13.335622-34.937598 0-48.274552l48.263899-48.263899c13.331627-13.331627 34.933604-13.331627 48.269226 0 13.326301 13.326301 13.326301 34.932272 0 48.263899L187.732004 739.473221 187.732004 739.473221 187.732004 739.473221zM836.261339 739.473221l-48.269226-48.274552c-13.326301-13.331627-13.326301-34.937598 0-48.263899 13.315648-13.331627 34.932272-13.331627 48.269226 0l48.258573 48.263899c13.336953 13.336953 13.336953 34.942925 0 48.274552C871.194942 752.799522 849.592966 752.799522 836.261339 739.473221L836.261339 739.473221 836.261339 739.473221zM102.402665 469.33733 34.139994 469.33733C15.28903 469.33733 0.002666 454.054961 0.002666 435.210655c0-18.854958 15.28237-34.137328 34.137328-34.137328l68.262672 0c18.850963 0 34.132002 15.28237 34.132002 34.137328C136.534667 454.054961 121.253629 469.33733 102.402665 469.33733L102.402665 469.33733 102.402665 469.33733zM989.85468 469.33733l-68.264003 0c-18.849632 0-34.137328-15.28237-34.137328-34.126675 0-18.854958 15.286364-34.137328 34.137328-34.137328l68.264003 0c18.849632 0 34.142654 15.28237 34.142654 34.137328C1023.997334 454.054961 1008.704312 469.33733 989.85468 469.33733L989.85468 469.33733 989.85468 469.33733zM477.862672 861.867998l0-68.264003c0-18.854958 15.28237-34.13067 34.132002-34.13067 18.844306 0 34.137328 15.275712 34.137328 34.13067L546.132002 861.867998C546.132002 880.71763 530.838979 896 511.994674 896 493.145042 896 477.862672 880.71763 477.862672 861.867998L477.862672 861.867998 477.862672 861.867998zM273.066668 384.007992c0 131.955413 106.967267 238.928006 238.928006 238.928006 131.960739 0 238.933332-106.972593 238.933332-238.928006 0-131.960739-106.972593-238.937327-238.933332-238.937327C380.033935 145.070665 273.066668 252.048585 273.066668 384.007992L273.066668 384.007992 273.066668 384.007992zM204.803996 384.007992c0-169.675982 137.525348-307.211982 307.190677-307.211982S819.190677 214.332011 819.190677 384.007992c0 169.665329-137.530675 307.190677-307.196004 307.190677S204.803996 553.673321 204.803996 384.007992L204.803996 384.007992 204.803996 384.007992zM443.730671-93.862667c0-18.838979 15.28237-34.137328 34.132002-34.137328l68.269329 0c18.849632 0 34.132002 15.297017 34.132002 34.137328 0 18.860284-15.28237 34.132002-34.132002 34.132002l-68.269329 0C459.01304-59.730665 443.730671-75.002382 443.730671-93.862667L443.730671-93.862667 443.730671-93.862667zM375.467999 8.533338c0-18.834985 15.281038-34.132002 34.126675-34.132002l204.799999 0c18.849632 0 34.132002 15.297017 34.132002 34.132002 0 18.865611-15.28237 34.142654-34.132002 34.142654L409.594674 42.675992C390.743711 42.674661 375.467999 27.398949 375.467999 8.533338L375.467999 8.533338 375.467999 8.533338zM375.467999 8.533338"  horiz-adv-x="1024" />

    
    <glyph glyph-name="xiugai1" unicode="&#58912;" d="M947.203729 896 76.801342 896c-42.421463 0-76.801346-34.379884-76.801346-76.801346l0-870.402387c0-42.416383 34.379884-76.796267 76.801346-76.796267l870.402387 0c42.393018 0 76.796267 34.379884 76.796267 76.796267L1023.999996 819.198654C1023.999996 861.620117 989.596748 896 947.203729 896zM230.690508 102.810384l64.315362 165.130716 116.392612-121.277901L230.690508 102.810384zM437.445233 176.636264 322.499212 296.401544l282.259829 293.910773 114.942974-119.766296L437.445233 176.636264zM773.911562 521.390012l-23.960167-23.346585L633.470403 619.818085l21.87663 25.11622c32.995261 34.380899 62.434998 11.235455 95.430259-23.149508C783.775601 587.409993 806.906823 555.767863 773.911562 521.390012z"  horiz-adv-x="1024" />

    
    <glyph glyph-name="guanbi" unicode="&#58934;" d="M743.624862 660.751754 280.375138 660.751754C125.774769 660.751754 0 535.071508 0 380.593231S125.774769 100.430769 280.375138 100.430769l463.249723 0C898.221292 100.430769 1024 226.111015 1024 380.593231S898.221292 660.751754 743.624862 660.751754zM743.624862 116.184615 280.375138 116.184615C134.463015 116.184615 15.753846 234.795323 15.753846 380.593231c0 145.793969 118.709169 264.404677 264.621292 264.404677l463.249723 0c145.916062 0 264.621292-118.610708 264.621292-264.404677C1008.246154 234.795323 889.536985 116.184615 743.624862 116.184615zM320.240246 575.759754c-107.106462 0-193.728985-86.626462-193.728985-193.728985s86.626462-193.728985 193.728985-193.728985c107.106462 0 193.728985 86.626462 193.728985 193.728985S427.342769 575.759754 320.240246 575.759754z"  horiz-adv-x="1024" />

    
    <glyph glyph-name="gongju" unicode="&#59398;" d="M409.153122 635.484661c88.878237 24.039509 169.71738-78.848813 169.71738-78.848813l74.879408 1.007957c0 0-96.827279 206.104101-226.603994 206.104101-46.896076 0-116.206652 0-170.687474 0-11.805884 0-23.00597-21.848611-32.92283-20.462031-27.78174 3.918239-45.711088 13.077853-49.956785 15.421224-15.093766 9.915837-40.571021 8.845459-62.053288 8.845459l-8.000208 0c-32.821523 0-39.222303 2.64627-39.222303-35.45449l0-103.858416c0-38.08848 6.40078-35.429931 39.222303-35.429931l8.000208 0c24.204262 0 53.523007-1.39886 67.282383 13.115716 12.725836 8.730848 41.213657 24.619724 70.154803 16.090467 36.022425-13.621229 37.244252-46.555315 40.419572-62.431911l0-162.384367c-16.32992-8.479115-27.40414-21.545712-27.40414-39.234583 0-2.1295 0-5.166673 0-8.895601 0 0 0-229.337245 0-288.807708 0-3.729951 0-6.77838 0-8.882298 0-67.976184 162.622798-67.976184 162.622798 0 0 2.103918 0 5.152347 0 8.882298 0 59.672054 0 288.807708 0 288.807708 0 3.755534 0 6.766101 0 8.895601 0 17.688871-11.100826 30.755468-27.429723 39.260166L397.17123 593.275327C398.973272 613.7875 401.58168 633.443166 409.153122 635.484661zM875.730607 534.22135c16.706497 5.405103 31.208792 13.141298 41.426505 23.372314 56.396451 56.395428 57.038064 164.891468 0 220.594117-0.213871 0.227174-13.065574 0.125867-19.9821 0.125867-0.013303-90.3651 3.590781-79.288834-24.128537-106.996896-22.477944-22.502503-94.005001-21.973454-115.979478 0-28.449959 28.450982-24.102954 14.666024-24.090675 106.996896-7.181563 0.024559-19.806091 0.101307-20.019962-0.113587-55.703673-57.088206-56.370869-164.235528 0-220.606397 10.206456-10.231015 24.39255-17.879206 40.583301-23.246447l0.013303-424.568718-13.557784-93.249801 15.422248-26.875091 117.918643 0.340761 15.925714 27.328415-13.544481 92.493577L875.730607 534.22135zM839.922053 35.66657c-13.746072-13.733792-36.034704-13.733792-49.779753 0.024559-13.733792 13.733792-13.747095 36.009122 0 49.756217 13.746072 13.746072 36.034704 13.733792 49.768497 0C853.655845 71.701275 853.669148 49.425945 839.922053 35.66657z"  horiz-adv-x="1024" />

    
    <glyph glyph-name="xiangxia" unicode="&#59057;" d="M862.261339 550.69965c0-39.708374 0.200568-76.340689-0.310062-112.961748-0.051165-3.659343-3.586688-8.606005-6.919597-10.689457C744.145198 357.778802 633.021308 288.889829 522.158361 219.583346c-10.280134-6.426363-17.532305-2.13564-25.708522 2.954285-73.469292 45.734624-146.983609 91.399663-220.479507 137.090285-34.744315 21.599947-69.359694 43.411719-104.318904 64.658625-7.315616 4.446265-10.073426 9.360182-9.948583 17.978467 0.50756 34.788318 0.210801 69.589938 0.210801 107.209744 6.197142-3.653203 10.832719-6.258541 15.346523-9.064446 107.431801-66.792219 214.920908-133.494387 322.143954-200.621227 8.773827-5.492084 14.845103-5.765307 23.783683-0.164752 106.797351 66.919109 213.888392 133.37159 320.906777 199.938682C849.198835 542.740374 854.348112 545.853271 862.261339 550.69965z"  horiz-adv-x="1024" />

    
    <glyph glyph-name="pinpaishouquan" unicode="&#58982;" d="M510.69-127.999965c-5.897 0-11.468 0.548-17.255999 1.473-17.037999 2.946-418.735986 78.962997-418.735986 658.082977L74.698015 679.760007c0 26.977999 11.681 52.859998 31.890999 71.213998 19.990999 17.797999 46.414998 26.916999 73.392997 25.388999 2.953-0.219 11.469-0.603 24.135999-0.603 24.353999 0 71.863998 1.644 115.223996 11.907 35.164999 8.358 80.818997 37.733999 128.109996 82.675997 6.666 6.221 9.063 7.481 10.05 8.084 29.595999 19.003999 75.687997 19.660999 107.578996-0.877 5.569-3.494 14.305-10.372 25.230999-19.113999 26.751999-21.510999 76.557997-61.595998 115.326996-70.768998 43.356999-10.263 90.210997-11.907 114.243996-11.907 12.447 0 20.743999 0.384 22.825999 0.548 3.604 0.219 5.563 0.219 7.646 0.219 24.895999 0 48.708998-9.07 67.055998-25.553999 20.312999-18.353999 31.890999-44.344998 31.890999-71.213998l0-148.203995c0-578.89998-404.102986-655.136977-421.359986-658.082977C522.269-127.451965 516.474-127.999965 510.69-127.999965zM173.974012 740.759005c-16.160999 0-31.451999-5.844-43.468999-16.434999-12.667-11.523-19.982999-27.745999-19.982999-44.563998l0-148.203995c0-549.250981 373.190987-620.025979 389.029987-622.752979 7.427-1.309 14.961999-1.309 22.278999 0 16.050999 2.727 391.756987 73.721997 391.756987 622.752979L913.587986 679.760007c0 16.817999-7.427 33.041999-20.208999 44.563998-11.682 10.591-26.972999 16.379999-43.022999 16.379999l-5.029-0.165c-0.986-0.109-10.701-0.603-25.442999-0.603-25.669999 0-75.577997 1.747-122.547996 12.886-46.632998 11.03-98.396997 52.750998-129.418996 77.598997-9.722 7.755-17.365999 13.928-22.168999 16.982999-20.422999 13.16-49.688998 13.16-70.227998 0-0.22-0.165-1.638-1.309-3.385-3.056-51.982998-49.257998-103.207996-81.805997-144.599995-91.526997-46.853998-11.14-97.425997-12.886-123.417996-12.886-14.852999 0-24.572999 0.493-26.978999 0.767L173.974012 740.759005zM344.901006 563.282011c0 16.982999-0.657 33.417999-1.974 49.146998l43.256999 0c-2.624-11.797-4.59-28.231999-5.898-49.146998l0-57.012998c15.722999 0 33.417999 0.658 53.072998 1.966l0-35.383999c-19.654999 1.253-37.350999 1.966-53.072998 1.966l0-80.605997 39.316999 15.728999c0-9.173 0.657-20.962999 1.965-35.383999-11.796-3.933-25.559999-9.831-41.281999-17.694999l0-157.267995c-1.309-11.798-6.886-20.641999-16.709999-26.539999-9.831-5.899-27.196999-10.105-52.099998-12.784 0 15.728999-3.926 30.801999-11.79 45.215998 27.519999-2.617 42.590999 0.658 45.214998 9.837L344.901006 343.104019c-23.593999-10.536-41.281999-20.373999-53.079998-29.485999-2.624 11.791-7.864 26.211999-15.728999 43.242999 27.526999 6.556 50.455998 14.421 68.809998 23.593999l0 94.362997c-24.901999 0-45.872998-0.712-62.910998-1.966l0 35.383999c15.722999-1.308 36.699999-1.966 62.910998-1.966L344.902006 563.282011zM476.615001 341.137019l0 33.418999c19.654999-1.309 37.350999-1.967 53.079998-1.967l151.368995 0c-3.933-18.399999-12.448-40.295999-25.553999-65.855998-13.105-25.559999-28.834999-49.476998-47.181998-71.755998 15.728999-10.543 35.055999-19.002999 57.991998-25.559999 22.936999-6.55 46.193998-10.481 69.788998-11.791-13.104-9.118-21.620999-22.284999-25.552999-39.315999-26.211999 3.933-49.477998 10.153-69.795998 18.674999-20.306999 8.578-40.954999 20.641999-61.918998 36.364999-31.458999-26.211999-72.083998-45.866998-121.888996-58.971998-2.617 10.536-12.455 22.332999-29.485999 35.383999 28.826999 3.933 54.059998 10.16 75.687997 18.674999 21.621999 8.517 38.329999 17.969999 50.127998 28.506999-20.970999 24.847999-39.316999 59.628998-55.046998 104.192996L476.615001 341.137019zM680.084994 498.412014c-7.207-17.044999-14.093-32.171999-20.647999-45.214998l76.673997 0c-1.309-11.797-1.966-23.594999-1.966-35.391999 0-10.537 0.657-22.332999 1.966-35.384999l-39.315999 0 0 39.316999-218.219992 0 0-39.316999-37.350999 0c1.315 11.791 1.974 23.587999 1.974 35.384999 0 13.051-0.658 24.847999-1.974 35.391999l182.834994 0c19.653999 49.797998 29.484999 83.216997 29.484999 100.254997l47.182998-17.688999C694.169994 527.897013 687.291994 515.388013 680.084994 498.412014zM600.464997 567.214011c-52.422998-3.932-100.262997-8.57-143.510995-13.763-2.617 13.051-7.207 25.553999-13.757 37.350999 44.557998 0 91.080997 2.24 139.577995 6.878 48.489998 4.59 85.182997 10.817 110.085996 18.681999 7.865-18.407999 15.070999-32.767999 21.627999-43.249999C690.895994 573.113011 652.886995 571.146011 600.464997 567.214011zM525.764 472.852015c-9.181-2.679-19.661999-7.865-31.458999-15.729999-5.241 15.729999-17.037999 36.645999-35.385999 62.910998 7.866 3.933 17.695999 9.824 29.492999 17.688999C500.202 521.999013 512.65 500.371014 525.764 472.852015zM582.774998 262.496022c22.278999 23.594999 37.350999 49.806998 45.215998 78.640997L537.559999 341.137019C550.658999 304.43702 565.729998 278.227021 582.774998 262.496022zM602.430997 480.709014c-15.728999-5.234-26.868999-10.536-33.425999-15.722999-10.481 28.780999-20.304999 51.770998-29.484999 68.802998 11.797 6.556 22.277999 11.797 31.458999 15.729999C578.842998 531.117013 589.323997 508.235013 602.430997 480.709014z"  horiz-adv-x="1024" />

    
    <glyph glyph-name="shouquan" unicode="&#59171;" d="M979.298462 551.778462l-436.263385-434.176c-10.948923-10.909538-28.711385-10.909538-39.660308 0l-8.822154 8.743385-0.078769 0-9.491692 9.531077-41.117538 40.920615c-0.275692 0.315077-0.354462 0.669538-0.630154 0.866462l-188.731077 189.203692c-10.909538 10.870154-10.909538 28.632615 0 39.463385l59.549538 59.234462c10.909538 10.830769 28.711385 10.830769 39.699692 0l169.668923-170.102154 356.745846 354.973538c10.909538 10.909538 28.711385 10.909538 39.660308 0l59.510154-59.155692C990.208 580.332308 990.208 562.688 979.298462 551.778462zM727.394462 684.819692c-40.605538 37.139692-45.883077 104.999385-45.883077 104.999385s-100.982154 18.116923-203.657846 18.116923c-100.982154 0-203.815385-18.116923-203.815385-18.116923s-6.852923-68.292923-45.371077-103.424c-40.920615-37.494154-113.624615-41.826462-113.624615-41.826462s-7.798154-132.883692 3.347692-248.280615c10.909538-113.624615 39.069538-225.910154 143.241846-310.980923 85.228308-69.553231 212.834462-125.203692 212.834462-125.203692s100.115692 43.756308 172.622769 91.214769c79.753846 52.302769 154.742154 123.904 177.664 260.017231 0.984615 5.513846 1.732923 11.067077 2.481231 16.580923l83.416615 83.022769c-3.072-38.951385-7.443692-78.060308-13.705846-114.845538-27.648-164.391385-118.311385-250.761846-214.528-314.013538-87.630769-57.344-208.580923-110.08-208.580923-110.08s-154.072615 67.111385-257.024 151.158154c-125.873231 102.793846-159.822769 238.395077-173.056 375.611077-13.469538 139.460923-4.096 299.953231-4.096 299.953231s87.867077 5.316923 137.294769 50.412308c46.552615 42.535385 54.823385 124.849231 54.823385 124.849231s124.100923 22.016 246.075077 22.016c124.061538 0 246.114462-22.016 246.114462-22.016s6.340923-81.880615 55.335385-126.660923c21.346462-19.416615 51.396923-31.153231 77.942154-38.281846l-61.400615-57.028923C772.962462 657.801846 746.141538 667.766154 727.394462 684.819692z"  horiz-adv-x="1024" />

    
    <glyph glyph-name="zhuisujianguan" unicode="&#59056;" d="M510.550487-63.051779c0 0-410.580123 132.673695-410.580123 366.459253L99.970364 697.020156 510.550487 832.719768l410.579099-135.699612 0-393.540028C921.128563 69.692524 510.550487-63.051779 510.550487-63.051779L510.550487-63.051779 510.550487-63.051779zM510.550487 631.174496c-79.987752 0-144.867412-60.122309-144.867412-134.351917 0-74.228585 64.87966-134.37136 144.867412-134.37136 80.005149 0 144.939043 60.141752 144.939043 134.37136C655.48953 571.052187 590.554612 631.174496 510.550487 631.174496L510.550487 631.174496 510.550487 631.174496zM558.864866 295.278329l-96.627734 0c-78.20106 0-147.600663-34.662451-191.740976-88.134293 82.867336-95.27697 240.053308-147.546428 240.053308-147.546428s157.185972 52.268434 240.052285 147.546428C706.464505 260.615878 637.083322 295.278329 558.864866 295.278329L558.864866 295.278329 558.864866 295.278329zM558.864866 295.278329"  horiz-adv-x="1024" />

    
    <glyph glyph-name="gengxin" unicode="&#59055;" d="M722.141012 582.362885C380.672 876.587247 26.151254 526.897572 26.151254 526.897572 408.283308 1180.665933 864.54272 700.304299 864.54272 700.304299L996.908372 825.370897 996.908372 384.606331 557.948588 384.606331 722.141012 582.362885 722.141012 582.362885ZM302.41024 185.607775C643.86304-108.518536 998.4 241.073085 998.4 241.073085 616.251732-412.695276 160.008534 67.74807 160.008534 67.74807L25.6-57.367555 25.6 343.979707 466.602668 343.979707 302.41024 185.607775 302.41024 185.607775Z"  horiz-adv-x="1024" />

    
    <glyph glyph-name="dianhua" unicode="&#59016;" d="M628.6033 256.778865c-15.94108-0.696872-29.215421-4.348032-39.824047-7.246038-20.403723-5.681402-36.519788-10.144044-96.863192 109.09376l-7.217386 14.318115c-59.387635 117.32422-45.85235 131.498048-40.751163 136.860178 2.75372 2.869353 5.738707 5.564745 8.869004 8.376793 4.637628 4.260028 9.448196 8.665366 14.201458 13.650918l0.028653 0c4.753262 4.985553 9.448196 10.491969 13.854556 16.752563 31.330597 44.345018 13.157684 123.672818-0.464581 166.974063-13.767575 43.852808-37.24429 98.399176-70.865048 109.239069-21.505825 6.898114-88.486399 13.043074-139.78786-40.634506-19.476606-20.403723-34.171298-47.069062-43.64917-79.299146-38.345368-130.541256 28.520596-290.415613 98.950738-429.536276 70.458795-139.208668 159.351447-286.880086 283.952404-326.934377 85.96497-27.70809 139.295649 10.520622 163.380208 35.735935 19.302644 20.202131 30.635772 42.694424 34.49057 55.79378 8.260136 28.171648-7.303344 69.386369-46.373213 122.483735C733.900589 198.607942 681.324088 259.010698 628.6033 256.778865L628.6033 256.778865zM770.738626 51.575068"  horiz-adv-x="1024" />

    
    <glyph glyph-name="nan" unicode="&#59017;" d="M554.666667 610.133333 554.666667 755.2l91.733333-74.666667c6.4-4.266667 12.8-6.4 21.333333-6.4 8.533333 0 19.2 4.266667 25.6 10.666667 10.666667 12.8 8.533333 34.133333-4.266667 44.8l-140.8 117.333333c-12.8 10.666667-29.866667 10.666667-40.533333 0l-138.666667-117.333333c-12.8-10.666667-14.933333-32-4.266667-44.8s32-14.933333 44.8-4.266667l85.333333 70.4 0-140.8c-174.933333-17.066667-311.466667-164.266667-311.466667-343.466667 0-189.866667 155.733333-345.6 345.6-345.6 189.866667 0 345.6 155.733333 345.6 345.6C870.4 445.866667 731.733333 595.2 554.666667 610.133333zM524.8-14.933333c-155.733333 0-281.6 125.866667-281.6 281.6s125.866667 281.6 281.6 281.6c155.733333 0 281.6-125.866667 281.6-281.6S678.4-14.933333 524.8-14.933333z"  horiz-adv-x="1024" />

    
    <glyph glyph-name="nv" unicode="&#59018;" d="M853.333333 514.133333c0 185.6-151.466667 337.066667-337.066667 337.066667S179.2 699.733333 179.2 514.133333c0-170.666667 125.866667-311.466667 290.133333-332.8L469.333333 64l-64 0c-17.066667 0-32-14.933333-32-32S388.266667 0 405.333333 0l64 0 0-42.666667c0-17.066667 19.2-32 42.666667-32s42.666667 14.933333 42.666667 32l0 42.666667 64 0c17.066667 0 32 14.933333 32 32S635.733333 64 618.666667 64l-64 0 0 115.2C723.2 198.4 853.333333 341.333333 853.333333 514.133333zM243.2 514.133333c0 151.466667 121.6 273.066667 273.066667 273.066667S789.333333 665.6 789.333333 514.133333c0-151.466667-121.6-273.066667-273.066667-273.066667S243.2 362.666667 243.2 514.133333z"  horiz-adv-x="1024" />

    
    <glyph glyph-name="wodekefu" unicode="&#59020;" d="M884.165 444.506c-2.494 203.504-168.046 367.753-372.161 367.753s-369.666-164.249-372.165-367.753c-34.163-27.314-56.096-69.25-56.096-116.37 0-82.254 66.697-148.969 148.96-148.969 35.899 0 68.818 12.726 94.534 33.857l-70.18 261.923c-7.949 1.294-16.045 2.155-24.353 2.155-5.474 0-10.855-0.339-16.183-0.926 17.954 147.35 143.268 261.601 295.488 261.601 152.199 0 277.532-114.25 295.481-261.601-5.306 0.583-10.705 0.926-16.18 0.926-8.305 0-16.421-0.863-24.375-2.155l-70.159-261.801c19.847-16.295 43.981-27.559 70.459-31.868-35.138-37.751-79.825-66.511-130.378-82.068l-6.164-6.156c-15.77 28.99-46.122 48.892-81.442 48.892-51.427 0-93.102-41.674-93.102-93.118 0-51.431 41.673-93.104 93.102-93.104 42.211 0 77.419 28.27 88.852 66.758 102.752 25.189 188.829 92.829 238.272 183.482 38.595 26.917 63.899 71.562 63.899 122.175-0.002 47.108-21.955 89.058-56.102 116.371z"  horiz-adv-x="1024" />

    
    <glyph glyph-name="dianhuadiaoyan" unicode="&#59022;" d="M884.531 668.218l-60.583 32.618c0 0-77.823 55.171-314.474 55.171h-6.378c-186.594 0-311.743-55.171-311.743-55.171l-60.583-32.618c-74.589-38.914-35.63-104.478-35.63-104.478l35.491-71.59 207.105 105.104c0 0-18.65 32.348-24.717 47.27-6.61 12.044-1.974 9.43 2.575 12.164 0 0 96.481 41.92 187.5 41.92h13.652c0 0 132.703-0.726 188.448-48.261 2.597-2.215 4.030-1.947 4.513-1.697-0.42-0.395-1.49-1.764-3.15-5.823-9.552-23.498-24.443-45.55-24.443-45.55l200.126-105.104 37.917 71.59c0.001 0 38.959 65.559-35.628 104.478zM332.213 493.566c-31.795 0-57.573-25.812-57.573-57.634 0-31.839 25.778-57.638 57.573-57.638s57.572 25.801 57.572 57.638c-0.001 31.822-25.775 57.634-57.572 57.634zM506.974 493.566c-31.796 0-57.573-25.812-57.573-57.634 0-31.839 25.775-57.638 57.573-57.638 31.796 0 57.572 25.801 57.572 57.638 0 31.822-25.775 57.634-57.572 57.634zM681.728 493.566c-31.795 0-57.573-25.812-57.573-57.634 0-31.839 25.778-57.638 57.573-57.638 31.796 0 57.573 25.801 57.573 57.638-0.001 31.822-25.778 57.634-57.573 57.634zM332.213 318.591c-31.795 0-57.573-25.801-57.573-57.634s25.778-57.638 57.573-57.638 57.572 25.803 57.572 57.638c-0.001 31.829-25.775 57.634-57.572 57.634zM506.974 318.591c-31.796 0-57.573-25.801-57.573-57.634s25.775-57.638 57.573-57.638c31.796 0 57.572 25.803 57.572 57.638 0 31.829-25.775 57.634-57.572 57.634zM681.728 318.591c-31.795 0-57.573-25.801-57.573-57.634s25.778-57.638 57.573-57.638c31.796 0 57.573 25.803 57.573 57.638-0.001 31.829-25.778 57.634-57.573 57.634zM332.213 143.627c-31.795 0-57.573-25.801-57.573-57.638s25.778-57.638 57.573-57.638 57.572 25.812 57.572 57.638c-0.001 31.839-25.775 57.638-57.572 57.638zM506.974 143.627c-31.796 0-57.573-25.801-57.573-57.638s25.775-57.638 57.573-57.638c31.796 0 57.572 25.812 57.572 57.638 0 31.839-25.775 57.638-57.572 57.638zM681.728 143.627c-31.795 0-57.573-25.801-57.573-57.638s25.778-57.638 57.573-57.638c31.796 0 57.573 25.812 57.573 57.638-0.001 31.839-25.778 57.638-57.573 57.638z"  horiz-adv-x="1024" />

    
    <glyph glyph-name="kaiguan" unicode="&#58917;" d="M942.702144 601.294219c0-91.656057-74.291231-165.920306-165.933697-165.920306L247.23527 435.373912c-91.642666 0-165.933897 74.265448-165.933897 165.920306l0 0c0 91.631474 74.291231 165.933897 165.933897 165.933897l529.534576 0C868.410913 767.228115 942.702144 692.925892 942.702144 601.294219L942.702144 601.294219zM776.169453 719.906999c-65.514181 0-118.61398-53.11219-118.61398-118.61398 0-65.488399 53.102197-118.601788 118.61398-118.601788 65.499591 0 118.611581 53.11219 118.611581 118.601788C894.781234 666.796208 841.669044 719.906999 776.169453 719.906999zM81.300174 166.703471c0 91.643865 74.291231 165.921505 165.933697 165.921505l529.534376 0c91.642466 0 165.933697-74.27764 165.933697-165.921505l0 0c0-91.645065-74.291231-165.933697-165.933697-165.933697L247.23527 0.769774C155.591405 0.769774 81.300174 75.058606 81.300174 166.703471L81.300174 166.703471zM247.834065 48.0773c65.512982 0 118.61418 53.102197 118.61418 118.626371 0 65.514181-53.100998 118.602987-118.61418 118.602987-65.50079 0-118.612781-53.088806-118.612781-118.602987C129.222483 101.178297 182.333274 48.0773 247.834065 48.0773z"  horiz-adv-x="1024" />

    
    <glyph glyph-name="quanbudingdan" unicode="&#59023;" d="M830.569 698.243h-52.735v52.735c0 29.109-23.625 52.735-52.735 52.735h-527.345c-29.109 0-52.735-23.625-52.735-52.735v-632.813c0-29.109 23.625-52.735 52.735-52.735h52.735v-52.735c0-29.109 23.625-52.735 52.735-52.735h527.345c29.109 0 52.735 23.625 52.735 52.735v632.813c0 29.109-23.625 52.735-52.735 52.735zM432.846 698.243h213.153c14.503 0 26.367-11.813 26.367-26.367s-11.866-26.367-26.367-26.367h-213.153c-14.554 0-26.367 11.813-26.367 26.367s11.813 26.367 26.367 26.367zM274.643 540.040h371.355c14.503 0 26.367-11.813 26.367-26.367s-11.866-26.367-26.367-26.367h-371.355c-14.554 0-26.367 11.813-26.367 26.367s11.813 26.367 26.367 26.367zM274.643 381.837h371.355c14.503 0 26.367-11.813 26.367-26.367 0-14.503-11.866-26.367-26.367-26.367h-371.355c-14.554 0-26.367 11.865-26.367 26.367 0 14.554 11.813 26.367 26.367 26.367zM274.643 170.899c-14.554 0-26.367 11.866-26.367 26.367s11.813 26.367 26.367 26.367h371.355c14.503 0 26.367-11.866 26.367-26.367s-11.866-26.367-26.367-26.367h-371.355zM830.569 12.697h-527.345v52.735h421.875c29.109 0 52.735 23.625 52.735 52.735v527.345h52.735v-632.813z"  horiz-adv-x="1024" />

    
    <glyph glyph-name="youxiangzhaohui" unicode="&#58977;" d="M866.461538 575.566769 866.461538 659.692308l-123.411692 0L512 817.230769l-231.049846-157.538462L157.538462 659.692308l0-84.125538L78.769231 521.846154l0-531.692308c0-21.740308 17.644308-39.384615 39.384615-39.384615l787.692308 0c21.740308 0 39.384615 17.644308 39.384615 39.384615L945.230769 521.846154 866.461538 575.566769zM918.468923 368.876308l-228.233846-190.208 207.596308-152.989538c8.763077-6.439385 10.633846-18.766769 4.174769-27.529846C898.146462-7.069538 892.179692-9.846154 886.134154-9.846154c-4.056615 0-8.152615 1.240615-11.657846 3.84L512 261.080615 149.523692-6.006154c-8.704-6.439385-21.090462-4.588308-27.510154 4.155077-6.459077 8.763077-4.588308 21.090462 4.174769 27.529846l207.596308 152.989538-228.233846 190.208c-8.349538 6.971077-9.472 19.357538-2.520615 27.726769 6.971077 8.349538 19.357538 9.452308 27.746462 2.500923L196.923077 344.004923 196.923077 620.307692l630.153846 0 0-276.302769 66.146462 55.118769c8.388923 6.971077 20.775385 5.848615 27.746462-2.500923C927.940923 388.253538 926.798769 375.847385 918.468923 368.876308zM334.769231 462.769231l354.461538 0c10.889846 0 19.692308 8.802462 19.692308 19.692308s-8.802462 19.692308-19.692308 19.692308L334.769231 502.153846c-10.889846 0-19.692308-8.802462-19.692308-19.692308S323.879385 462.769231 334.769231 462.769231zM728.615385 403.692308 295.384615 403.692308c-10.889846 0-19.692308-8.802462-19.692308-19.692308s8.802462-19.692308 19.692308-19.692308l433.230769 0c10.889846 0 19.692308 8.802462 19.692308 19.692308S739.505231 403.692308 728.615385 403.692308z"  horiz-adv-x="1024" />

    
    <glyph glyph-name="shibai" unicode="&#58911;" d="M557.312 382.752l265.28 263.904c12.544 12.48 12.608 32.704 0.128 45.248-12.512 12.576-32.704 12.608-45.248 0.128l-265.344-263.936-263.04 263.84C236.64 704.416 216.384 704.48 203.84 692 191.328 679.52 191.296 659.264 203.776 646.72l262.976-263.776L201.6 119.2c-12.544-12.48-12.608-32.704-0.128-45.248 6.24-6.272 14.464-9.44 22.688-9.44 8.16 0 16.32 3.104 22.56 9.312l265.216 263.808 265.44-266.24c6.24-6.272 14.432-9.408 22.656-9.408 8.192 0 16.352 3.136 22.592 9.344 12.512 12.48 12.544 32.704 0.064 45.248L557.312 382.752z"  horiz-adv-x="1024" />

    
    <glyph glyph-name="liaotian1" unicode="&#59024;" d="M511.981069-29.749302c85.268012 0 167.709653 22.305005 239.133356 64.612577l186.630584-54.403051-42.889833 192.718233c40.97932 64.003709 62.580291 136.656403 62.580291 210.812333 0 228.14714-199.831234 413.758512-445.454398 413.758512-245.608837 0-445.418582-185.611371-445.418582-413.758512C66.56351 155.86207 266.373255-29.749302 511.981069-29.749302L511.981069-29.749302zM744.066915 88.778208l-9.166777-5.726421c-65.849754-41.175795-142.940526-62.935378-222.918046-62.935378-218.643696 0-396.529105 163.225525-396.529105 363.874381S293.34249 747.883591 511.981069 747.883591c218.658022 0 396.569014-163.243945 396.569014-363.892801 0-67.548442-20.741393-133.813658-59.986209-191.663204l-6.108115-9.020444 29.330002-131.753743L744.066915 88.778208 744.066915 88.778208zM744.066915 88.778208M607.311251 382.766916c0-26.743084 21.25407-48.40443 47.473221-48.40443 26.221198 0 47.474244 21.661346 47.474244 48.40443 0 26.720571-21.25407 48.400337-47.474244 48.400337C628.565321 431.166229 607.311251 409.486464 607.311251 382.766916L607.311251 382.766916zM607.311251 382.766916M442.508811 382.766916c0-26.743084 21.272489-48.40443 47.473221-48.40443 26.237571 0 47.473221 21.661346 47.473221 48.40443 0 26.720571-21.236674 48.400337-47.473221 48.400337C463.7813 431.166229 442.508811 409.486464 442.508811 382.766916L442.508811 382.766916zM442.508811 382.766916M277.718651 382.766916c0-26.743084 21.25407-48.425919 47.473221-48.425919 26.219151 0 47.474244 21.682835 47.474244 48.425919 0 26.738991-21.255093 48.400337-47.474244 48.400337C298.97272 431.166229 277.718651 409.51 277.718651 382.766916L277.718651 382.766916zM277.718651 382.766916"  horiz-adv-x="1024" />

    
    <glyph glyph-name="shezhi2" unicode="&#59025;" d="M855.872 352.368c1.008 10.464 1.632 20.976 1.632 31.632s-0.624 21.168-1.632 31.632l80.208 63.408c17.376 14.208 21.84 38.688 10.704 58.032l-85.536 149.664c-10.848 19.008-34.08 28.128-56.064 19.68l-93.984-38.208c-17.232 12.384-35.28 22.992-53.856 31.68l-14.256 101.568c-3.36 21.984-22.656 38.544-44.832 38.544l-171.12 0c-22.464 0-41.328-16.176-44.88-38.88l-14.208-101.232c-18.624-8.736-36.672-19.344-53.904-31.68l-94.224 38.352c-20.304 7.872-44.88-0.816-55.728-19.824l-85.536-149.616c-11.136-19.488-6.672-43.968 10.992-58.32l79.872-63.168c-1.008-10.416-1.632-20.976-1.632-31.632s0.624-21.216 1.632-31.632l-80.304-63.408c-17.232-14.256-21.696-38.688-10.56-57.984l85.584-149.76c10.896-18.96 34.656-28.08 56.016-19.584l93.984 38.208c17.28-12.384 35.328-22.992 53.856-31.632l14.256-101.712c3.504-22.32 22.368-38.496 44.784-38.496l171.072 0c22.176 0 41.424 16.56 44.928 38.88l14.208 101.28c18.576 8.736 36.624 19.296 53.856 31.68l94.224-38.4c5.28-2.064 10.8-3.072 16.464-3.072 16.128 0 31.2 8.736 39.36 22.896l85.392 149.568c11.184 19.296 6.864 43.776-10.944 58.512l-79.824 63.024zM823.232 106.032l-106.512 43.344c-7.968 3.312-16.992 2.016-23.76-3.264-21.024-16.32-43.488-29.52-66.816-39.216-7.824-3.264-13.344-10.464-14.544-18.864l-15.696-112.08-166.128-2.448-16.032 114.528c-1.152 8.4-6.72 15.552-14.544 18.864-23.136 9.6-45.648 22.848-66.816 39.216-4.272 3.264-9.456 4.992-14.688 4.992-3.024 0-6.096-0.576-9.024-1.776l-102.768-44.304-86.448 146.592 90.336 71.328c6.624 5.232 9.984 13.584 8.928 21.936-1.728 12.864-2.832 25.872-2.832 39.12s1.104 26.256 2.784 39.024c1.104 8.4-2.256 16.704-8.928 21.936l-89.424 68.304 81.84 148.704 106.416-43.296c7.968-3.264 16.992-2.016 23.76 3.216 21.072 16.32 43.632 29.568 66.96 39.36 7.824 3.264 13.296 10.416 14.496 18.816l13.344 111.936 168.48 2.448 16.032-114.48c1.152-8.4 6.72-15.552 14.544-18.816 23.232-9.696 45.744-22.896 66.864-39.264 6.816-5.232 15.84-6.48 23.76-3.264l102.768 44.256 86.496-146.496-90.384-71.424c-6.624-5.232-10.032-13.536-8.976-21.888 1.632-12.864 2.832-25.872 2.832-39.12s-1.152-26.256-2.832-39.12c-1.056-8.352 2.352-16.656 8.976-21.888l89.376-68.208-81.84-148.704zM512.768 564.96c-98.976 0-179.472-81.168-179.472-180.96 0-99.744 80.496-180.96 179.472-180.96 98.976 0 179.424 81.168 179.424 180.96 0 99.792-80.496 180.96-179.424 180.96zM512.768 251.04c-72.48 0-131.472 59.616-131.472 132.96s58.992 132.96 131.472 132.96c72.48 0 131.424-59.664 131.424-132.96s-58.992-132.96-131.424-132.96z"  horiz-adv-x="1024" />

    
    <glyph glyph-name="tishi2" unicode="&#59026;" d="M923.905 557.043c-23.457 54.238-55.37 101.537-95.759 141.871-40.373 40.346-87.577 72.236-141.593 95.676-54.022 23.446-111.859 35.166-173.511 35.166-61.657 0-119.496-11.721-173.516-35.166-54.016-23.44-101.208-55.329-141.593-95.676-40.385-40.335-72.297-87.627-95.766-141.871-23.463-54.245-35.188-112.159-35.188-173.767 0-61.602 11.725-119.378 35.188-173.343 23.467-53.977 55.381-101.13 95.759-141.475 40.385-40.335 87.577-72.225 141.592-95.676 54.021-23.435 111.859-35.16 173.516-35.16 61.653 0 119.489 11.721 173.511 35.16 54.016 23.451 101.218 55.342 141.592 95.676 40.38 40.346 72.303 87.499 95.759 141.475 23.474 53.965 35.199 111.747 35.199 173.343 0.011 61.614-11.721 119.523-35.193 173.767l0 0zM513.042 95.557c-27.891 0-50.495 22.582-50.495 50.451 0 27.857 22.61 50.451 50.495 50.451 27.896 0 50.49-22.593 50.49-50.451 0-27.874-22.598-50.451-50.49-50.451l0 0zM563.532 305.291c0-27.863-22.598-50.462-50.49-50.462-27.891 0-50.495 22.598-50.495 50.462l0 316.084c0 27.874 22.61 50.462 50.495 50.462 27.896 0 50.49-22.588 50.49-50.462l0-316.084zM563.532 305.291z"  horiz-adv-x="1024" />

    
    <glyph glyph-name="weijianli" unicode="&#59027;" d="M809.286 813.513l-591.109 0c-39.747 0-72.363-32.614-72.363-72.363l0-729.712c0-39.747 32.614-72.363 72.363-72.363l496.329 0 167.138 172.238 0 629.838c0 39.747-32.614 72.363-72.363 72.363zM711.446 6.343l0 67.874c0 16.103 13.249 29.148 29.148 29.148l62.372 0-91.521-97.025zM834.561 156.158l-88.666 0c-44.844 0-81.532-36.689-81.532-81.532l0-85.61-442.516 0c-16.103 0-29.148 13.249-29.148 29.148l0 713.406c0 16.103 13.249 29.148 29.148 29.148l583.568 0c16.103 0 29.148-13.249 29.148-29.148l0-575.414zM266.484 583.182l382.386 0c13.654 0 24.868 11.211 24.868 25.07 0 13.654-11.414 24.868-25.07 24.868l-382.183 0c-13.654 0-24.868-11.211-24.868-24.868 0-13.859 11.211-25.07 24.868-25.07zM266.691 512.656c-13.654 0-24.868-11.414-24.868-25.07s11.211-24.868 24.868-24.868l326.128 0c13.654 0 24.868 11.211 25.07 24.868 0 13.859-11.414 25.07-25.07 25.07l-326.128 0zM714.507 392.193l-448.018 0c-13.654 0-24.868-11.211-24.868-24.868 0-13.859 11.211-25.07 24.868-25.07l448.018 0c13.654 0 24.868 11.211 25.07 25.07 0 13.654-11.414 24.868-25.07 24.868z"  horiz-adv-x="1024" />

    
    <glyph glyph-name="chenggong1" unicode="&#59028;" d="M512-128C229.7-128 0 101.7 0 384 0 666.3 229.7 896 512 896c282.3 0 512-229.7 512-512C1024 101.7 794.3-128 512-128L512-128zM757.7 519.8c-14.3 14.2-37.5 14.1-51.7-0.3L439.4 250l-118 121.3c-14.1 14.5-37.3 14.8-51.7 0.7-14.5-14.1-14.8-37.3-0.7-51.7l144-148c0.1-0.1 0.2-0.1 0.3-0.2 0.1-0.1 0.1-0.2 0.2-0.3 2.3-2.3 5.2-3.7 7.9-5.2 1.4-0.8 2.6-2 4-2.6 4.4-1.8 9.1-2.7 13.8-2.7 4.6 0 9.3 0.9 13.7 2.7 1.4 0.6 2.5 1.8 3.9 2.5 2.7 1.5 5.6 2.9 7.9 5.2 0.1 0.1 0.1 0.2 0.2 0.3 0.1 0.1 0.2 0.1 0.3 0.2l292.8 296C772.2 482.5 772 505.6 757.7 519.8L757.7 519.8z"  horiz-adv-x="1024" />

    
    <glyph glyph-name="dizhi" unicode="&#59029;" d="M529.216 880.576c-201.28 0-364.608-166.336-364.608-371.968 0-78.592 24.064-151.68 64.96-211.712 1.984-3.456 3.776-6.848 6.208-9.92l248.32-319.04c12.416-16.704 28.8-24.704 45.184-24.704s32.704 8 45.12 24.704l248.384 319.04c2.304 3.072 4.16 6.4 5.952 9.536 41.024 60.224 65.152 133.184 65.152 212.032C893.76 714.24 730.624 880.576 529.216 880.576L529.216 880.576 529.216 880.576zM768.832 339.136l-1.856-2.816L765.376 333.44 764.16 331.392 529.216 29.44 294.272 331.392l-1.472 2.56L291.2 336.896 289.472 339.2c-34.048 49.92-51.968 108.672-51.968 169.408 0 164.288 130.752 297.6 291.648 297.6s291.648-133.312 291.648-297.6C820.8 447.936 802.88 389.056 768.832 339.136L768.832 339.136 768.832 339.136zM529.216 657.408C448.64 657.408 383.36 590.72 383.36 508.544c0-82.048 65.28-148.8 145.856-148.8s145.856 66.752 145.856 148.8C675.072 590.72 609.728 657.408 529.216 657.408L529.216 657.408 529.216 657.408zM529.216 434.112c-40.192 0-72.96 33.344-72.96 74.432 0 41.152 32.704 74.368 72.96 74.368s72.96-33.216 72.96-74.368C602.112 467.52 569.408 434.112 529.216 434.112L529.216 434.112 529.216 434.112zM724.736 27.136"  horiz-adv-x="1024" />

    
    <glyph glyph-name="gaoyuan" unicode="&#59032;" d="M630.025216 830.67904c0-37.306368-2.121728-71.67488 0.68608-105.636864 2.162688-26.164224 6.810624-53.39136 16.979968-77.330432 15.71328-36.988928 46.81728-55.084032 88.112128-54.562816 44.32896 0.560128 88.670208 0.126976 136.122368 0.126976 0.580608-10.225664 1.509376-19.01568 1.514496-27.80672 0.08704-163.357696 0.172032-326.715392 0.02048-490.073088-0.08192-87.919616-50.80576-138.027008-139.283456-138.047488-148.278272-0.03584-296.556544-0.053248-444.83584 0.008192-76.945408 0.031744-138.770432 61.366272-138.806272 137.91232-0.096256 206.082048-0.11776 412.164096 0.009216 618.246144 0.0512 82.266112 54.708224 137.145344 136.073216 137.15968 103.878656 0.018432 207.756288 0.004096 311.634944 0.004096C607.372288 830.67904 616.489984 830.67904 630.025216 830.67904zM511.844352 474.568704c-58.576896 0-117.158912 0.436224-175.725568-0.3584-12.080128-0.16384-25.255936-2.630656-35.910656-8.020992-23.891968-12.089344-34.823168-40.006656-28.700672-66.417664 5.85728-25.269248 28.118016-43.787264 59.336704-45.328384 35.062784-1.73056 70.258688-0.90112 105.397248-0.917504 83.680256-0.037888 167.370752-0.688128 251.035648 0.475136 39.653376 0.550912 66.113536 27.421696 65.043456 61.667328-1.107968 35.454976-27.487232 58.740736-67.257344 58.857472C627.323904 474.694656 569.583616 474.568704 511.844352 474.568704zM508.024832 116.424704c58.574848 0 117.151744-0.17408 175.725568 0.059392 41.033728 0.162816 68.401152 24.51968 68.569088 60.343296 0.162816 34.697216-26.182656 60.111872-66.294784 60.351488-117.146624 0.698368-234.302464 0.770048-351.44704-0.058368-39.975936-0.282624-65.379328-26.314752-64.462848-61.792256 0.91136-35.289088 27.230208-58.642432 67.206144-58.832896C394.220544 116.225024 451.1232 116.426752 508.024832 116.424704zM872.523776 655.261696c-48.914432 0-96.538624-2.122752-143.838208 0.873472-24.57088 1.555456-32.759808 25.805824-33.890304 46.563328-2.260992 41.501696-0.67072 83.212288-0.67072 124.834816C745.8816 826.908672 869.977088 709.389312 872.523776 655.261696z"  horiz-adv-x="1024" />

    
    <glyph glyph-name="renshu" unicode="&#59033;" d="M1004.609152 100.1c-22.9 49.7-67.9 80.8-141.7 97.8-185.1 42.8-184.6 57.6-163.2 98.1 76.5 144.5 135 334 50.8 474.2C702.509152 850.1 615.609152 896 512.009152 896 407.709152 896 320.209152 849.5 272.009152 768.3c-68.7-115.7-50.1-283.6 52.5-472.8 21.8-40.2 22.3-54.8-163.4-97.7-73.8-17-118.8-48.1-141.7-97.8C-3.390848 50.7 0.209152-0.8 0.209152-128l1023.6 0C1023.809152 0.8 1027.309152 50.8 1004.609152 100.1zM85.209152-42.7c0 93 6.1 114.7 86.7 133.3 110 25.4 215 47.9 249.3 124 17 37.7 12.7 80.5-12.6 127.2C321.709152 501.9 301.209152 643.1 352.209152 729c31.3 52.7 88 81.7 159.8 81.7 71.2 0 127.4-28.5 158.5-80.2 65.1-108.5 4.2-276.7-55.3-389.1-24.8-46.9-28.8-89.7-11.6-127.3 34.2-75 138.7-98.1 248.5-123.5 80.6-18.6 86.7-40.3 86.7-133.3L85.209152-42.7z"  horiz-adv-x="1026" />

    
    <glyph glyph-name="riqi2" unicode="&#59034;" d="M805.49888-85.49888l-602.3168 0.76288c-86.59456 8.192-154.56768 81.3056-154.56768 170.01472L48.6144 604.26752c0 94.1568 76.60032 170.75712 170.7776 170.75712l586.10176 0c94.1568 0 170.73152-76.60032 170.73152-170.75712L976.22528 85.2992C976.2304-8.87296 899.63008-85.49888 805.49888-85.49888L805.49888-85.49888zM219.3664 705.42848c-55.79776 0-101.20192-45.38368-101.20192-101.18144l0-518.96832c0-55.79776 45.40416-101.20704 101.20192-101.20704l586.13248 0c55.77728 0 101.16096 45.40928 101.16096 101.20704L906.65984 604.26752c0 55.79776-45.38368 101.18656-101.16096 101.18656L219.3664 705.45408 219.3664 705.42848zM698.84416 605.48096c-25.60512 0-46.38208 20.77696-46.38208 46.38208l0 158.6688c0 25.6 20.77696 46.38208 46.38208 46.38208 25.6 0 46.38208-20.78208 46.38208-46.38208L745.22624 651.8784C745.22624 626.2528 724.46976 605.48096 698.84416 605.48096L698.84416 605.48096zM315.65824 605.48096c-25.60512 0-46.38208 20.77696-46.38208 46.38208l0 158.6688c0 25.6 20.77696 46.38208 46.38208 46.38208 25.6 0 46.38208-20.78208 46.38208-46.38208L362.04032 651.8784C362.04032 626.2528 341.28896 605.48096 315.65824 605.48096L315.65824 605.48096zM534.8864 101.21216l-44.27264 0c-25.6 0-46.38208 20.77696-46.38208 46.38208 0 25.6 20.78208 46.38208 46.38208 46.38208l44.27264 0c25.6 0 46.38208-20.78208 46.38208-46.38208C581.26848 121.98912 560.4864 101.21216 534.8864 101.21216L534.8864 101.21216zM930.79552 443.392 121.24672 443.392c-25.60512 0-46.38208 20.78208-46.38208 46.38208 0 25.60512 20.77696 46.38208 46.38208 46.38208l809.5744 0c25.6 0 46.38208-20.77696 46.38208-46.38208C977.2032 464.17408 956.42624 443.392 930.79552 443.392L930.79552 443.392zM327.92576 246.96832l-44.27264 0c-25.6 0-46.38208 20.78208-46.38208 46.38208 0 25.60512 20.78208 46.38208 46.38208 46.38208l44.27264 0c25.6 0 46.38208-20.77696 46.38208-46.38208C374.30784 267.74528 353.52576 246.96832 327.92576 246.96832L327.92576 246.96832zM534.8864 246.96832l-44.27264 0c-25.6 0-46.38208 20.78208-46.38208 46.38208 0 25.60512 20.78208 46.38208 46.38208 46.38208l44.27264 0c25.6 0 46.38208-20.77696 46.38208-46.38208S560.4864 246.96832 534.8864 246.96832L534.8864 246.96832zM741.27872 246.96832l-44.26752 0c-25.60512 0-46.38208 20.78208-46.38208 46.38208 0 25.60512 20.77696 46.38208 46.38208 46.38208l44.26752 0c25.60512 0 46.38208-20.77696 46.38208-46.38208C787.6608 267.74528 766.90944 246.96832 741.27872 246.96832L741.27872 246.96832zM327.92576 101.21216l-44.27264 0c-25.6 0-46.38208 20.77696-46.38208 46.38208 0 25.6 20.78208 46.38208 46.38208 46.38208l44.27264 0c25.6 0 46.38208-20.78208 46.38208-46.38208C374.30784 121.98912 353.52576 101.21216 327.92576 101.21216L327.92576 101.21216zM741.27872 101.21216l-44.26752 0c-25.60512 0-46.38208 20.77696-46.38208 46.38208 0 25.6 20.77696 46.38208 46.38208 46.38208l44.26752 0c25.60512 0 46.38208-20.78208 46.38208-46.38208C787.6608 121.98912 766.90944 101.21216 741.27872 101.21216L741.27872 101.21216z"  horiz-adv-x="1024" />

    
    <glyph glyph-name="shibai1" unicode="&#59035;" d="M512.697 820.555c-247.539 0-448.208-200.669-448.208-448.208 0-247.54 200.669-448.208 448.208-448.208 247.54 0 448.208 200.668 448.208 448.208 0 247.539-200.668 448.208-448.208 448.208zM690.686 238.792c12.265-12.274 12.265-32.171 0-44.427-12.283-12.274-32.171-12.274-44.453 0l-133.316 133.316-133.327-133.316c-12.274-12.274-32.161-12.274-44.445 0-12.265 12.256-12.265 32.153 0 44.427l133.335 133.353-133.335 133.317c-12.265 12.256-12.265 32.171 0 44.444 12.283 12.256 32.171 12.256 44.445 0l133.327-133.335 133.316 133.335c12.283 12.256 32.171 12.256 44.453 0 12.265-12.274 12.265-32.189 0-44.444l-133.335-133.317 133.335-133.353z"  horiz-adv-x="1024" />

    
    <glyph glyph-name="shijian" unicode="&#59036;" d="M512.353 765.458c-210.881 0-381.848-170.91-381.848-381.79s170.967-381.82 381.848-381.82c210.853 0 381.792 170.94 381.792 381.82 0 210.882-170.939 381.79-381.792 381.79zM703.308 341.528h-202.734c-4.289 0-8.405 0.856-12.178 2.458-11.207 4.746-19.099 15.866-19.099 28.817v202.735c0 17.295 14.008 31.305 31.277 31.305 17.327 0 31.336-14.009 31.336-31.305v-171.398h171.397c17.298 0 31.306-14.009 31.306-31.306 0-17.298-14.008-31.306-31.306-31.306z"  horiz-adv-x="1024" />

    
    <glyph glyph-name="weikong" unicode="&#59037;" d="M822.248037 460.267705 482.67731 53.980257 234.932253 265.734871 276.413573 313.993061 475.085423 144.20563 773.233142 501.002269 822.248037 460.267705ZM128.132722 116.053082C128.132722 19.048306 200.588005-59.885815 289.673135-59.885815L731.856779-59.885815C820.941906-59.885815 893.397194 19.048306 893.397194 116.053082L893.397194 559.063267C893.397194 645.067501 836.393902 716.73382 761.396329 731.908986 765.489651 702.302877 765.862831 678.429609 765.862831 671.406007L797.746421 671.406007 797.746421 607.809852 223.783491 607.809852 223.783491 671.406007 255.678744 671.406007C255.678744 678.429608 256.040262 702.302877 260.145245 731.908986 185.136009 716.73382 128.132722 645.067501 128.132722 559.063267L128.132722 116.053082 128.132722 116.053082ZM957.176032 559.063267 957.176032 116.053082C957.176032-16.034816 856.102486-123.47034 731.856779-123.47034L289.673135-123.47034C165.427426-123.47034 64.35388-16.034816 64.35388 116.053082L64.35388 559.063267C64.35388 685.988121 157.753906 789.8537 275.28237 797.807581 292.25041 848.077498 323.842454 893.975107 383.224765 893.975107L638.316809 893.975107C697.68746 893.975107 729.279501 848.077498 746.247543 797.807581 863.776006 789.8537 957.176032 685.988121 957.176032 559.063267L957.176032 559.063267ZM702.08399 671.406007C701.979032 723.303912 686.258814 830.378951 638.316809 830.378951L383.224765 830.378951C335.2711 830.378951 319.550881 723.303911 319.445924 671.406007L702.08399 671.406007 702.08399 671.406007Z"  horiz-adv-x="1024" />

    
    <glyph glyph-name="zhaomu" unicode="&#59038;" d="M999.609314 100.100002C976.823245 149.8 932.047125 180.900002 858.614289 197.900002 674.435183 240.700002 674.932698 255.500002 696.226227 296 772.34563 440.500002 830.554586 630 746.773491 770.2 699.012297 850.1 612.544636 896 509.460058 896 405.678965 896 318.614289 849.5 270.654089 768.3 202.295881 652.6 220.803343 484.700002 322.892896 295.500002 344.584438 255.300002 345.08195 240.700002 160.305831 197.8 86.872995 180.8 42.096876 149.700002 19.310806 100-3.375761 50.700002 0.206328-0.8 0.206328-128L1018.713792-128C1018.713792 0.8 1022.196378 50.8 999.609314 100.100002L999.609314 100.100002Z"  horiz-adv-x="1024" />

    
    <glyph glyph-name="yue" unicode="&#59039;" d="M511.996 779.508c-218.43 0-395.504-177.069-395.504-395.499 0-218.447 177.075-395.516 395.504-395.516 218.437 0 395.513 177.069 395.513 395.516-0.007 218.428-177.075 395.499-395.513 395.499v0 0zM675.147 292.652c0-11.358-10.11-22.945-27.697-22.945l-96.848 0.302v-79.257c0-17.583-16.377-35.471-33.969-35.471-17.586 0-33.965 17.887-33.965 35.471v79.257l-96.782-0.302c-17.577 0-27.763 7.015-27.763 34.268 0 11.317 5.058 22.644 22.644 22.644h101.901v56.612h-101.9c-17.579 0-22.644 13.18-22.644 22.644 0 17.6 5.058 33.968 22.644 33.968h79.257l-88.982 105.152c-11.414 13.35-9.862 33.615 3.497 45.046v0c13.357 11.422 33.611 9.87 45.041-3.497l97.125-113.227 97.129 113.227c11.439 13.366 31.691 14.917 45.042 3.497v0c13.366-11.431 14.919-31.697 3.488-45.046l-89.115-105.15h79.257c17.586 0 22.644-13.991 22.644-22.644 0-17.573-5.058-33.968-22.644-33.968h-101.902v-56.612h101.901c0.001-0.001 22.645 1.709 22.645-33.968z"  horiz-adv-x="1024" />

    
    </font>
</defs>
</svg>
